<svg id="Calque_1" data-name="Calque 1" xmlns="http://www.w3.org/2000/svg" viewBox="0 0 1600 400"><defs><style>.cls-1{fill:#fff;}.cls-2{fill:#001914;}.cls-3{fill:none;stroke:#063;stroke-miterlimit:10;stroke-width:0.03px;}</style></defs><rect class="cls-1" x="-28.5" y="-49" width="1657" height="498"/><path class="cls-2" d="M1515,243.54q-4.65,17.72-30.78,17.72h-39.76q-18.6,0-18.6-10.74a29.36,29.36,0,0,1,2.33-9.86l18.38-47.83-54.92,60.23q-8.86,9.87-19.38,9.86a28.65,28.65,0,0,1-4.21-.33q-12.62-1.44-12.62-12.63a25.18,25.18,0,0,1,2-9.3l27.24-70.31-68.32,82.49q-6.87,8.41-20.15,8.42h-22.48l44.74-127.89H1257l16.72-27.91h74q15.27,0,15.28,11.19a32.66,32.66,0,0,1-2.11,10.41L1337,195.71l47.61-53.93q9.08-10.4,13.95-13.51,8.09-5.09,20.93-5.09a14.24,14.24,0,0,1,7.64,2.55q6.09,4,6.09,11.85a29.84,29.84,0,0,1-2.44,11l-21.48,55.8L1452,161.49q9.09-9.08,12.07-11,5.21-3,15-2.88a14.94,14.94,0,0,1,8.2,2.88q6.63,4.32,6.64,12.62a29.45,29.45,0,0,1-2.22,10.52l-26.46,69.87Z"/><path d="M79.52,112.78H94.74l0,3.79H79.43ZM86.77,132a4.84,4.84,0,0,1-2.09-1.76A8.25,8.25,0,0,1,83.49,127a22.8,22.8,0,0,1-.23-5l.55-14,5-.62.38,0,0,.38-.34.58a2.54,2.54,0,0,0-.21,1l-.47,5.76.21.29-.34,6.5a17.63,17.63,0,0,0,.19,4.19,3.56,3.56,0,0,0,1,2,2.44,2.44,0,0,0,1.6.54,5.28,5.28,0,0,0,2.44-.55,13,13,0,0,0,2-1.27l1,3.48A11.58,11.58,0,0,1,93.23,132a10.59,10.59,0,0,1-3.51.57A7.4,7.4,0,0,1,86.77,132Z"/><path d="M100.61,103.94h5.18v.38a1.32,1.32,0,0,0-.27.56,5,5,0,0,0-.07,1v9.5a6.82,6.82,0,0,1,1.66-1.72,7.06,7.06,0,0,1,2-1,6.94,6.94,0,0,1,2.11-.34,6.62,6.62,0,0,1,3.33.81,5.37,5.37,0,0,1,2.22,2.63,12,12,0,0,1,.78,4.69v11.72h-4.85V120.62a8.76,8.76,0,0,0-.34-2.72,2.67,2.67,0,0,0-.95-1.43,2.54,2.54,0,0,0-1.47-.41,5,5,0,0,0-1.4.2,3.77,3.77,0,0,0-1.24.65,5,5,0,0,0-1,1.06,4.16,4.16,0,0,0-.66,1.41,6.33,6.33,0,0,0-.22,1.74v11.09h-4.84Z"/><path d="M131.05,132.55a11.33,11.33,0,0,1-3.93-.66A9,9,0,0,1,124,130a8.42,8.42,0,0,1-2.06-3.13,11.65,11.65,0,0,1-.72-4.23,12.14,12.14,0,0,1,.72-4.31,9.6,9.6,0,0,1,2-3.24,8.33,8.33,0,0,1,3-2,9.61,9.61,0,0,1,3.66-.68,9.08,9.08,0,0,1,3.27.58,7.54,7.54,0,0,1,2.7,1.77,8.57,8.57,0,0,1,1.85,3,11.49,11.49,0,0,1,.68,4.11c0,.28,0,.61,0,1s0,.73-.06,1h-13.1a6,6,0,0,0,.55,2.27,4.43,4.43,0,0,0,1.24,1.55,5.34,5.34,0,0,0,1.7.9,6.31,6.31,0,0,0,1.95.3,8.72,8.72,0,0,0,1.72-.17,5.29,5.29,0,0,0,1.58-.59,7.21,7.21,0,0,0,1.42-1.11l2.47,2.38a9,9,0,0,1-2.11,1.85,7.94,7.94,0,0,1-2.51,1.06A11.56,11.56,0,0,1,131.05,132.55Zm-5.14-12.37h8.41a5.21,5.21,0,0,0-.27-1.74,3.64,3.64,0,0,0-.79-1.29,3.3,3.3,0,0,0-1.25-.79,5.32,5.32,0,0,0-1.72-.26,5.4,5.4,0,0,0-1.56.22,3.64,3.64,0,0,0-1.34.75,4.21,4.21,0,0,0-1,1.29A5.33,5.33,0,0,0,125.91,120.18Z"/><path d="M163.41,132.21V105.72h4.21l5.14,12.16,5.15-12.2h4.21v26.53H178V113.72l-4.17,9.73h-2.34l-3.91-9.69v18.45Z"/><path d="M186.88,132.21v-3.78h4.85V116.57h-4.6v-3.79h9.44v15.65H201v3.78Zm7.06-23.51a3,3,0,0,1-2.13-.85,2.71,2.71,0,0,1-.89-2,2.75,2.75,0,0,1,.85-2.09,3,3,0,0,1,2.17-.8,3,3,0,0,1,2.1.85,2.67,2.67,0,0,1,.92,2,2.7,2.7,0,0,1-.92,2A3,3,0,0,1,193.94,108.7Z"/><path d="M206.91,132.21V112.78h4.8v2.77a10.82,10.82,0,0,1,1.57-1.66,6.73,6.73,0,0,1,1.89-1.13,6.14,6.14,0,0,1,2.24-.4,6.44,6.44,0,0,1,3.19.81,5.82,5.82,0,0,1,2.33,2.61,10.51,10.51,0,0,1,.9,4.71v11.72H219V120.62a8.13,8.13,0,0,0-.34-2.61,2.87,2.87,0,0,0-1-1.48,2.54,2.54,0,0,0-1.55-.47,4.21,4.21,0,0,0-1.59.31,4.25,4.25,0,0,0-1.43.93,5,5,0,0,0-1,1.48,4.71,4.71,0,0,0-.38,1.93v11.5Z"/><path d="M228.34,112.78h15.22l0,3.79H228.25ZM235.58,132a4.82,4.82,0,0,1-2.08-1.76,8.25,8.25,0,0,1-1.19-3.22,22.8,22.8,0,0,1-.23-5l.55-14,5-.62.38,0,0,.38-.34.58a2.54,2.54,0,0,0-.21,1l-.47,5.76.21.29-.34,6.5a17.63,17.63,0,0,0,.19,4.19,3.56,3.56,0,0,0,1,2,2.44,2.44,0,0,0,1.6.54,5.28,5.28,0,0,0,2.44-.55,13,13,0,0,0,2-1.27l1,3.48a11.58,11.58,0,0,1-3.08,1.64,10.59,10.59,0,0,1-3.51.57A7.48,7.48,0,0,1,235.58,132Z"/><path d="M79.3,234.26V207.77h6.17a15.25,15.25,0,0,1,3.87.42A7.8,7.8,0,0,1,94,211.38a10.76,10.76,0,0,1,1.47,2.67,15.77,15.77,0,0,1,.85,3.25,25.46,25.46,0,0,1,.28,3.84,24.43,24.43,0,0,1-.81,5.48,11.62,11.62,0,0,1-2,4.12,8.9,8.9,0,0,1-3.51,2.61,13.38,13.38,0,0,1-5.25.91Zm2.81-2.34h2.72a9.19,9.19,0,0,0,5-1.23,7.3,7.3,0,0,0,2.87-3.61,15.25,15.25,0,0,0,.89-5.77,18.19,18.19,0,0,0-.85-5.94,7.58,7.58,0,0,0-2.66-3.78,8,8,0,0,0-4.78-1.31H82.11Z"/><path d="M109.83,234.6A11.14,11.14,0,0,1,106,234a8.16,8.16,0,0,1-3-1.93,8.39,8.39,0,0,1-1.94-3.14,12.7,12.7,0,0,1-.68-4.29,12.5,12.5,0,0,1,.7-4.36A9.37,9.37,0,0,1,103,217a8.13,8.13,0,0,1,2.84-2,9.06,9.06,0,0,1,3.47-.68,8.75,8.75,0,0,1,3.1.55,6.69,6.69,0,0,1,2.51,1.68,7.94,7.94,0,0,1,1.68,2.86,12.24,12.24,0,0,1,.62,4.1c0,.23,0,.46,0,.7s0,.47-.07.7H103.29a9.6,9.6,0,0,0,.63,3.22,6.25,6.25,0,0,0,1.45,2.22,5.59,5.59,0,0,0,2.06,1.28,7.78,7.78,0,0,0,4.4.19,6.27,6.27,0,0,0,1.68-.72,6.56,6.56,0,0,0,1.43-1.21l1.7,1.65a8.08,8.08,0,0,1-1.85,1.66,7.51,7.51,0,0,1-2.28,1A10.76,10.76,0,0,1,109.83,234.6Zm-6.42-12h10.67a7.66,7.66,0,0,0-.36-2.43,5.62,5.62,0,0,0-1-1.85,4.23,4.23,0,0,0-1.57-1.19,5.22,5.22,0,0,0-2.06-.4,5.46,5.46,0,0,0-1.94.34,4.78,4.78,0,0,0-1.68,1.08,6.25,6.25,0,0,0-1.29,1.83A8.61,8.61,0,0,0,103.41,222.61Z"/><path d="M127.73,233.84a9.36,9.36,0,0,1-3.08-2.12,9.69,9.69,0,0,1-2-3.2,11.58,11.58,0,0,1,0-8,9.79,9.79,0,0,1,2-3.2,9.19,9.19,0,0,1,3.08-2.11,9.72,9.72,0,0,1,3.87-.77,9.36,9.36,0,0,1,4.28,1A8.18,8.18,0,0,1,139,218l-1.91,1.87-.3.3-.21-.22a1.36,1.36,0,0,0-.15-.63,3.62,3.62,0,0,0-.66-.81,5.34,5.34,0,0,0-2-1.19,8,8,0,0,0-2.47-.34,5.69,5.69,0,0,0-2.34.5,6.28,6.28,0,0,0-2,1.46,7.17,7.17,0,0,0-1.38,2.31,8.21,8.21,0,0,0-.52,3,8.36,8.36,0,0,0,.52,3,7.46,7.46,0,0,0,1.4,2.39,6.19,6.19,0,0,0,2.15,1.59,6.47,6.47,0,0,0,6.27-.52,7.5,7.5,0,0,0,1.49-1.29l1.78,2.08a9.64,9.64,0,0,1-3.21,2.29,9.45,9.45,0,0,1-3.8.77A9.86,9.86,0,0,1,127.73,233.84Z"/><path d="M151.42,234.6a8.4,8.4,0,0,1-4.66-1.3,8.88,8.88,0,0,1-3.17-3.57,11.45,11.45,0,0,1-1.14-5.21,11.59,11.59,0,0,1,1.14-5.25,9,9,0,0,1,3.17-3.57,9,9,0,0,1,9.31,0,8.93,8.93,0,0,1,3.17,3.57,11.46,11.46,0,0,1,1.15,5.25,11.32,11.32,0,0,1-1.15,5.21,8.8,8.8,0,0,1-3.17,3.57A8.37,8.37,0,0,1,151.42,234.6Zm0-2.55a4.76,4.76,0,0,0,3-1,6.55,6.55,0,0,0,2-2.68,10.57,10.57,0,0,0,0-7.82,6.48,6.48,0,0,0-2-2.66,4.8,4.8,0,0,0-3-1,4.85,4.85,0,0,0-3,1,6.52,6.52,0,0,0-2,2.66,10.7,10.7,0,0,0,0,7.82,6.58,6.58,0,0,0,2,2.68A4.81,4.81,0,0,0,151.42,232.05Z"/><path d="M169.08,234a7.91,7.91,0,0,1-2.59-1.9,9,9,0,0,1-1.85-3.2,13.77,13.77,0,0,1-.68-4.52,12.66,12.66,0,0,1,.72-4.53,8.93,8.93,0,0,1,1.92-3.08,7.64,7.64,0,0,1,2.63-1.77,8,8,0,0,1,2.94-.57,6.71,6.71,0,0,1,2.44.43,6.1,6.1,0,0,1,1.91,1.17,5.14,5.14,0,0,1,1.3,1.76V206h3.23v.3a1.2,1.2,0,0,0-.32.55,6,6,0,0,0-.06,1l0,23.38c0,.51,0,1,.07,1.51a5.27,5.27,0,0,0,.36,1.51h-3a5.18,5.18,0,0,1-.3-1,7.32,7.32,0,0,1-.1-1q0-.5,0-1a7.41,7.41,0,0,1-1.44,1.8A6,6,0,0,1,172,234.6,7.14,7.14,0,0,1,169.08,234Zm5.77-2.62a4.28,4.28,0,0,0,1.57-1.59,7.75,7.75,0,0,0,.87-2.4,15,15,0,0,0,.28-2.92,12.42,12.42,0,0,0-.56-3.85,5.66,5.66,0,0,0-1.74-2.69,4.61,4.61,0,0,0-3.06-1,5.09,5.09,0,0,0-2.28.49,4.29,4.29,0,0,0-1.65,1.4,6.69,6.69,0,0,0-1,2.21,11.16,11.16,0,0,0-.34,2.88,12.82,12.82,0,0,0,.63,4.21,6.18,6.18,0,0,0,1.88,2.81,4.55,4.55,0,0,0,3,1A4.7,4.7,0,0,0,174.85,231.35Z"/><path d="M187.56,234.26v-2.47h5v-14.5h-4.72v-2.46h7.78v17h4.55v2.47Zm6.33-23.51a2.17,2.17,0,0,1-2.16-2.17,2.19,2.19,0,0,1,.61-1.58,2.08,2.08,0,0,1,1.55-.63,2.25,2.25,0,0,1,2.22,2.21,2.11,2.11,0,0,1-.66,1.53A2.19,2.19,0,0,1,193.89,210.75Z"/><path d="M207.63,234.26V214.83h3v3.49a9.21,9.21,0,0,1,1.79-2.07,8.1,8.1,0,0,1,2.25-1.36,7,7,0,0,1,2.55-.49,5.3,5.3,0,0,1,2.9.81,5.51,5.51,0,0,1,2,2.59,12.13,12.13,0,0,1,.76,4.71v11.75h-3V222.6a9.28,9.28,0,0,0-.47-3.25,3.55,3.55,0,0,0-1.28-1.74,3.3,3.3,0,0,0-1.83-.53,4.87,4.87,0,0,0-2,.43,6.37,6.37,0,0,0-3.23,3.09,5.64,5.64,0,0,0-.54,2.51v11.15Z"/><path d="M236.33,241.57a19.59,19.59,0,0,1-3.68-.31,10.33,10.33,0,0,1-2.8-.94,4.71,4.71,0,0,1-1.79-1.54,4,4,0,0,1-.62-2.21,4.35,4.35,0,0,1,.51-2.12,4.78,4.78,0,0,1,1.34-1.55,6.28,6.28,0,0,1,1.81-.91l1.28.77a6.66,6.66,0,0,0-1.24.93,2.79,2.79,0,0,0-.68,1.08,4.5,4.5,0,0,0-.21,1.46,2.12,2.12,0,0,0,.42,1.29,3.23,3.23,0,0,0,1.22.95,7.68,7.68,0,0,0,1.91.6,14.13,14.13,0,0,0,2.57.21,10.55,10.55,0,0,0,3.17-.4,4,4,0,0,0,1.81-1.1,2.43,2.43,0,0,0,.59-1.59,3,3,0,0,0-.34-1.53,2.21,2.21,0,0,0-1.4-.89,13.45,13.45,0,0,0-3.23-.29c-1,0-1.9,0-2.72-.13a12.78,12.78,0,0,1-2.21-.42,6,6,0,0,1-1.64-.75,2.86,2.86,0,0,1-1-1.08,3.05,3.05,0,0,1-.34-1.48,4,4,0,0,1,.61-2.12,9.09,9.09,0,0,1,1.68-2l1.45,1.15a9.36,9.36,0,0,0-.68.83,2.65,2.65,0,0,0-.36.68,2.19,2.19,0,0,0-.11.7,1.35,1.35,0,0,0,.53,1.1,4.07,4.07,0,0,0,1.85.62,27.52,27.52,0,0,0,3.58.19,15.08,15.08,0,0,1,3.65.36,4.91,4.91,0,0,1,2.15,1,3.73,3.73,0,0,1,1,1.56,6.13,6.13,0,0,1,.3,1.95,5.47,5.47,0,0,1-.45,2.19,5.09,5.09,0,0,1-1.42,1.86,7.29,7.29,0,0,1-2.6,1.32A14,14,0,0,1,236.33,241.57Zm-.89-13.86a7.12,7.12,0,0,1-3.62-.89,6.3,6.3,0,0,1-2.36-2.42,7,7,0,0,1-.83-3.36,6.81,6.81,0,0,1,.83-3.34,6.32,6.32,0,0,1,2.36-2.4,7.75,7.75,0,0,1,7.25,0,6.27,6.27,0,0,1,2.34,2.4,6.81,6.81,0,0,1,.83,3.34,7,7,0,0,1-.83,3.36,6.25,6.25,0,0,1-2.34,2.42A7.05,7.05,0,0,1,235.44,227.71Zm0-2.55a4.18,4.18,0,0,0,3.7-2.06,4.19,4.19,0,0,0,0-4.15,4.2,4.2,0,0,0-1.51-1.48,4.3,4.3,0,0,0-2.19-.56,4.25,4.25,0,0,0-2.19.56,4.12,4.12,0,0,0-1.51,1.48,4.12,4.12,0,0,0,0,4.15,4.1,4.1,0,0,0,1.51,1.5A4.15,4.15,0,0,0,235.44,225.16Zm5.65-7.1-1.19-1.4a8.13,8.13,0,0,1,2.57-1.81,6.9,6.9,0,0,1,3.17-.45l.38,2.51a10.36,10.36,0,0,0-2.63.09A5,5,0,0,0,241.09,218.06Z"/><path d="M271.45,206h3.36v.3a1.11,1.11,0,0,0-.32.56,5.93,5.93,0,0,0-.06,1v10.46a9,9,0,0,1,1.8-2.07,8.91,8.91,0,0,1,2.22-1.36,6.11,6.11,0,0,1,2.35-.49,5.84,5.84,0,0,1,3.09.81A5.29,5.29,0,0,1,286,217.8a12.36,12.36,0,0,1,.74,4.71v11.75h-3V222.6a9.28,9.28,0,0,0-.47-3.25,3.6,3.6,0,0,0-1.27-1.74,3.3,3.3,0,0,0-1.83-.53,5.27,5.27,0,0,0-1.58.26,5.87,5.87,0,0,0-1.55.76,6.57,6.57,0,0,0-1.34,1.25,5.89,5.89,0,0,0-1.27,3.76v11.15h-3Z"/><path d="M300.24,234.6a8.4,8.4,0,0,1-4.66-1.3,8.88,8.88,0,0,1-3.17-3.57,11.45,11.45,0,0,1-1.15-5.21,11.59,11.59,0,0,1,1.15-5.25,9,9,0,0,1,3.17-3.57,9,9,0,0,1,9.31,0,9,9,0,0,1,3.17,3.57,11.46,11.46,0,0,1,1.15,5.25,11.32,11.32,0,0,1-1.15,5.21,8.88,8.88,0,0,1-3.17,3.57A8.37,8.37,0,0,1,300.24,234.6Zm0-2.55a4.76,4.76,0,0,0,3-1,6.55,6.55,0,0,0,2-2.68,10.57,10.57,0,0,0,0-7.82,6.48,6.48,0,0,0-2-2.66,4.8,4.8,0,0,0-3-1,4.85,4.85,0,0,0-3,1,6.52,6.52,0,0,0-2,2.66,10.7,10.7,0,0,0,0,7.82,6.58,6.58,0,0,0,2,2.68A4.81,4.81,0,0,0,300.24,232.05Z"/><path d="M315.46,234.26l-3.91-19.43h2.68l3.14,15.57,3.32-13.74h1.87l4.12,13.7q.56-3.78.92-6.2c.24-1.61.42-2.93.55-4s.21-1.91.26-2.61.06-1.42.06-2.12v-.64h2.85c-.29,2.18-.59,4.35-.92,6.51s-.68,4.32-1.06,6.47-.8,4.3-1.25,6.45H325.2l-3.58-12.56-3.4,12.56Z"/><path d="M355.51,232.18l12-14.67H356.4v-2.68h15.1v2.08l-11.82,14.71h11a4.11,4.11,0,0,0,1-.08,1.29,1.29,0,0,0,.55-.34h.3v3.06h-17Z"/><path d="M385.28,234.6a8.4,8.4,0,0,1-4.66-1.3,8.88,8.88,0,0,1-3.17-3.57,11.45,11.45,0,0,1-1.15-5.21,11.59,11.59,0,0,1,1.15-5.25,9,9,0,0,1,3.17-3.57,9,9,0,0,1,9.31,0,9,9,0,0,1,3.17,3.57,11.59,11.59,0,0,1,1.15,5.25,11.45,11.45,0,0,1-1.15,5.21,8.88,8.88,0,0,1-3.17,3.57A8.39,8.39,0,0,1,385.28,234.6Zm0-2.55a4.76,4.76,0,0,0,3-1,6.55,6.55,0,0,0,2-2.68,10.57,10.57,0,0,0,0-7.82,6.48,6.48,0,0,0-2-2.66,5.06,5.06,0,0,0-5.93,0,6.52,6.52,0,0,0-2,2.66,10.7,10.7,0,0,0,0,7.82,6.58,6.58,0,0,0,2,2.68A4.79,4.79,0,0,0,385.28,232.05Z"/><path d="M406.54,234.6a8.4,8.4,0,0,1-4.66-1.3,8.88,8.88,0,0,1-3.17-3.57,11.45,11.45,0,0,1-1.15-5.21,11.59,11.59,0,0,1,1.15-5.25,9,9,0,0,1,3.17-3.57,9,9,0,0,1,9.31,0,9,9,0,0,1,3.17,3.57,11.59,11.59,0,0,1,1.15,5.25,11.45,11.45,0,0,1-1.15,5.21,8.88,8.88,0,0,1-3.17,3.57A8.39,8.39,0,0,1,406.54,234.6Zm0-2.55a4.76,4.76,0,0,0,3-1,6.55,6.55,0,0,0,2-2.68,10.57,10.57,0,0,0,0-7.82,6.48,6.48,0,0,0-2-2.66,5.06,5.06,0,0,0-5.93,0,6.43,6.43,0,0,0-2,2.66,10.57,10.57,0,0,0,0,7.82,6.5,6.5,0,0,0,2,2.68A4.79,4.79,0,0,0,406.54,232.05Z"/><path d="M418.78,234.26V214.83h2.81v1.95a5.69,5.69,0,0,1,1.08-1.25,5,5,0,0,1,1.36-.83,4,4,0,0,1,1.51-.3,3.45,3.45,0,0,1,1.57.36,3.6,3.6,0,0,1,1.22,1,3.8,3.8,0,0,1,.66,1.49,4.82,4.82,0,0,1,1-1.49,5.13,5.13,0,0,1,1.53-1,4.68,4.68,0,0,1,1.81-.36,3.55,3.55,0,0,1,1.7.39,3.47,3.47,0,0,1,1.19,1,4.67,4.67,0,0,1,.68,1.57,7.86,7.86,0,0,1,.17,2v14.89H434.3V220.52a10.57,10.57,0,0,0-.23-2.59,1.68,1.68,0,0,0-.66-1,1.9,1.9,0,0,0-.94-.23,2,2,0,0,0-1.51.74,6.14,6.14,0,0,0-1.59,4v12.81h-2.85V220.77a7.57,7.57,0,0,0-.45-3.22,1.91,1.91,0,0,0-2.63-.49,3.66,3.66,0,0,0-.92.89,4.69,4.69,0,0,0-.68,1.42,6.83,6.83,0,0,0-.25,1.95v12.94Z"/><path d="M450,234.6a11.06,11.06,0,0,1-3.87-.65,8.29,8.29,0,0,1-3-1.93,8.5,8.5,0,0,1-1.93-3.14,13.9,13.9,0,0,1,0-8.65,9.51,9.51,0,0,1,1.91-3.19,8.26,8.26,0,0,1,2.85-2,9,9,0,0,1,3.47-.68,8.79,8.79,0,0,1,3.1.55,6.77,6.77,0,0,1,2.51,1.68,7.94,7.94,0,0,1,1.68,2.86,12.24,12.24,0,0,1,.62,4.1c0,.23,0,.46,0,.7s0,.47-.07.7H443.44a9.84,9.84,0,0,0,.64,3.22,6.25,6.25,0,0,0,1.45,2.22,5.59,5.59,0,0,0,2.06,1.28,7.78,7.78,0,0,0,4.4.19,6.16,6.16,0,0,0,3.1-1.93l1.7,1.65a7.87,7.87,0,0,1-1.85,1.66,7.35,7.35,0,0,1-2.27,1A10.82,10.82,0,0,1,450,234.6Zm-6.42-12h10.67a7.66,7.66,0,0,0-.36-2.43,5.62,5.62,0,0,0-1-1.85,4.23,4.23,0,0,0-1.57-1.19,5.23,5.23,0,0,0-2.07-.4,5.41,5.41,0,0,0-1.93.34,4.78,4.78,0,0,0-1.68,1.08,6.47,6.47,0,0,0-1.3,1.83A8.9,8.9,0,0,0,443.57,222.61Z"/><path d="M464.74,214.83h3.19l-.12,5.7-.39-.64a6.72,6.72,0,0,1,.9-2.34,6.5,6.5,0,0,1,1.53-1.72,6.63,6.63,0,0,1,1.95-1.07,6.87,6.87,0,0,1,2.21-.36,7.46,7.46,0,0,1,2.83.53,6.76,6.76,0,0,1,2.32,1.6l-1.36,2.38-.17.38-.3-.17a2.67,2.67,0,0,0-.25-.63,3.07,3.07,0,0,0-.73-.73,4.67,4.67,0,0,0-1.25-.57,5.22,5.22,0,0,0-1.3-.15,6,6,0,0,0-2.13.4,5.77,5.77,0,0,0-1.93,1.25,5.91,5.91,0,0,0-1.38,2.16,8.63,8.63,0,0,0-.51,3.13v10.28h-3.11Z"/><path d="M488.53,234.26a11.85,11.85,0,0,1-2.76-1,11,11,0,0,1-2.4-1.7l1.7-2.89.25-.39.26.17c.06.23.12.47.19.71a2.44,2.44,0,0,0,.57.87,7.49,7.49,0,0,0,2.15,1.46,7.65,7.65,0,0,0,3.21.58,8.18,8.18,0,0,0,2.66-.38A3.84,3.84,0,0,0,496,230.6a2.56,2.56,0,0,0,.34-2.74,2.8,2.8,0,0,0-.83-.91,8.48,8.48,0,0,0-1.51-.84,19.82,19.82,0,0,0-2.3-.85,20.9,20.9,0,0,1-3.86-1.48,7.57,7.57,0,0,1-2.56-2,4,4,0,0,1-.89-2.56,4.11,4.11,0,0,1,.81-2.55,5.21,5.21,0,0,1,2.4-1.69,11,11,0,0,1,3.93-.62,15.41,15.41,0,0,1,2.47.19,9.52,9.52,0,0,1,2,.58,7.6,7.6,0,0,1,1.72,1,10.36,10.36,0,0,1,1.51,1.33l-1.74,2.13-.3.34-.21-.21a2.17,2.17,0,0,0-.19-.66,3.19,3.19,0,0,0-.62-.79A7.2,7.2,0,0,0,494,217.1a7.61,7.61,0,0,0-2.38-.4,6.78,6.78,0,0,0-2.93.59,1.9,1.9,0,0,0-1.24,1.8,2.09,2.09,0,0,0,.45,1.25,4.63,4.63,0,0,0,1.64,1.23,19.73,19.73,0,0,0,3.4,1.24,24,24,0,0,1,3.89,1.54,5.61,5.61,0,0,1,2.12,1.8,4.33,4.33,0,0,1,.66,2.41,5.57,5.57,0,0,1-.87,3,6,6,0,0,1-2.66,2.22,10.74,10.74,0,0,1-4.5.82A13.49,13.49,0,0,1,488.53,234.26Z"/><path d="M80.37,285.28v-2.46h5.74V259.47H80.62V257h8.59v25.81h5.7v2.46Z"/><path d="M102.52,285.28v-2.46h5v-14.5h-4.72v-2.47h7.79v17h4.55v2.46Zm6.33-23.51a2.17,2.17,0,0,1-2.16-2.17,2.16,2.16,0,0,1,.61-1.57,2.05,2.05,0,0,1,1.55-.64,2.25,2.25,0,0,1,2.22,2.21,2,2,0,0,1-.66,1.53A2.15,2.15,0,0,1,108.85,261.77Z"/><path d="M128.92,285.28l-7.69-19.43h3.06l6.29,15.95H130l3.44-7.91a41.82,41.82,0,0,0,1.64-4.34,30.49,30.49,0,0,0,.91-3.7h2.89a28.25,28.25,0,0,1-1.06,3.91c-.48,1.42-1.08,2.95-1.78,4.6l-4.72,10.92Z"/><path d="M152.35,285.62a10.88,10.88,0,0,1-3.87-.65,8.27,8.27,0,0,1-3-1.92,8.51,8.51,0,0,1-1.94-3.15,12.62,12.62,0,0,1-.68-4.29,12.48,12.48,0,0,1,.7-4.35,9.27,9.27,0,0,1,1.92-3.19,8,8,0,0,1,2.84-2,9,9,0,0,1,3.47-.67,8.53,8.53,0,0,1,3.1.55,6.55,6.55,0,0,1,2.51,1.67,7.94,7.94,0,0,1,1.68,2.86,12.34,12.34,0,0,1,.62,4.11c0,.22,0,.46,0,.7s0,.47-.07.69H145.8a9.79,9.79,0,0,0,.64,3.22,6.39,6.39,0,0,0,1.45,2.23,5.72,5.72,0,0,0,2.06,1.28,7.65,7.65,0,0,0,4.4.18,5.69,5.69,0,0,0,1.68-.72,6.52,6.52,0,0,0,1.43-1.21l1.7,1.66a8.57,8.57,0,0,1-1.85,1.66,7.74,7.74,0,0,1-2.28,1A10.31,10.31,0,0,1,152.35,285.62Zm-6.42-12H156.6a7.55,7.55,0,0,0-.36-2.42,5.57,5.57,0,0,0-1-1.86,4.21,4.21,0,0,0-1.57-1.18,5,5,0,0,0-2.06-.4,5.69,5.69,0,0,0-1.94.33,4.92,4.92,0,0,0-1.68,1.08,6.17,6.17,0,0,0-1.29,1.84A8.54,8.54,0,0,0,145.93,273.63Z"/><path d="M187.9,285.28,184,265.85h2.68l3.14,15.57,3.32-13.74H195l4.12,13.7q.56-3.78.92-6.19c.24-1.62.42-2.94.55-4s.21-1.9.26-2.61.06-1.41.06-2.12v-.64h2.85c-.29,2.18-.59,4.35-.92,6.51s-.68,4.33-1.06,6.48-.8,4.29-1.25,6.44h-2.89l-3.58-12.55-3.4,12.55Z"/><path d="M208.82,285.28v-2.46h5v-14.5h-4.72v-2.47h7.78v17h4.55v2.46Zm6.33-23.51A2.17,2.17,0,0,1,213,259.6a2.16,2.16,0,0,1,.61-1.57,2.05,2.05,0,0,1,1.55-.64,2.13,2.13,0,0,1,1.56.66,2.17,2.17,0,0,1,.66,1.55,2.07,2.07,0,0,1-.66,1.53A2.15,2.15,0,0,1,215.15,261.77Z"/><path d="M228.8,265.85h14v2.51h-14ZM235.48,285a4.28,4.28,0,0,1-1.83-2,10.26,10.26,0,0,1-.83-3.38,39,39,0,0,1-.1-4.86l.51-13.88,3.18-.39.43,0,0,.3a4.76,4.76,0,0,0-.36.6,3.21,3.21,0,0,0-.23,1l-.39,4.81.13.77-.3,7a27,27,0,0,0,.17,5,4.05,4.05,0,0,0,1.07,2.43,3,3,0,0,0,2,.66,5.43,5.43,0,0,0,2.49-.55,19,19,0,0,0,2.27-1.4l.94,2.42a10.84,10.84,0,0,1-3,1.57,10,10,0,0,1-3.19.51A6.5,6.5,0,0,1,235.48,285Z"/><path d="M250.19,257h3.36v.3a1.08,1.08,0,0,0-.32.55,6,6,0,0,0-.06,1v10.45a9.16,9.16,0,0,1,1.8-2.06,8.62,8.62,0,0,1,2.22-1.36,6.15,6.15,0,0,1,5.44.31,5.29,5.29,0,0,1,2.08,2.59,12.34,12.34,0,0,1,.75,4.71v11.75h-3V273.62a9.18,9.18,0,0,0-.47-3.24,3.51,3.51,0,0,0-1.27-1.74,3.22,3.22,0,0,0-1.83-.53,5.25,5.25,0,0,0-1.58.25,5.87,5.87,0,0,0-1.55.76,6.36,6.36,0,0,0-1.34,1.26,5.79,5.79,0,0,0-.93,1.67,6,6,0,0,0-.34,2.08v11.15h-3Z"/><path d="M291.22,285.28V265.85H294v2a6,6,0,0,1,1.08-1.26,5,5,0,0,1,1.36-.83,4.22,4.22,0,0,1,1.51-.29,3.52,3.52,0,0,1,1.58.36,3.44,3.44,0,0,1,1.21,1,3.68,3.68,0,0,1,.66,1.49,4.6,4.6,0,0,1,1-1.49,4.77,4.77,0,0,1,1.53-1,4.68,4.68,0,0,1,1.81-.36,3.55,3.55,0,0,1,1.7.38,3.31,3.31,0,0,1,1.19,1,4.4,4.4,0,0,1,.68,1.57,7.35,7.35,0,0,1,.17,2v14.89h-2.81V271.54a10.57,10.57,0,0,0-.23-2.59,1.71,1.71,0,0,0-.66-1,2,2,0,0,0-.94-.23,2.1,2.1,0,0,0-1.51.74,5.86,5.86,0,0,0-1.14,1.85,5.77,5.77,0,0,0-.45,2.2v12.81H299V271.79a7.57,7.57,0,0,0-.45-3.22,1.94,1.94,0,0,0-2.63-.49,3.84,3.84,0,0,0-.92.89,4.75,4.75,0,0,0-.68,1.43,6.74,6.74,0,0,0-.25,2v12.93Z"/><path d="M321.5,285.62a8.48,8.48,0,0,1-4.66-1.29,9,9,0,0,1-3.17-3.57,12.47,12.47,0,0,1,0-10.46,9,9,0,0,1,3.17-3.58,9,9,0,0,1,9.31,0,9,9,0,0,1,3.17,3.58,12.47,12.47,0,0,1,0,10.46,9,9,0,0,1-3.17,3.57A8.44,8.44,0,0,1,321.5,285.62Zm0-2.55a4.7,4.7,0,0,0,3-1,6.58,6.58,0,0,0,2-2.67,10.59,10.59,0,0,0,0-7.83,6.48,6.48,0,0,0-2-2.66,4.86,4.86,0,0,0-3-.95,4.91,4.91,0,0,0-3,.95,6.52,6.52,0,0,0-2,2.66,10.73,10.73,0,0,0,0,7.83,6.62,6.62,0,0,0,2,2.67A4.75,4.75,0,0,0,321.5,283.07Z"/><path d="M335.19,285.28V265.85h3v3.49a9.38,9.38,0,0,1,1.79-2.06,7.87,7.87,0,0,1,2.25-1.36,6.84,6.84,0,0,1,2.55-.49,5.4,5.4,0,0,1,2.9.8,5.51,5.51,0,0,1,2,2.59,12.13,12.13,0,0,1,.76,4.71v11.75h-3V273.62a9.18,9.18,0,0,0-.47-3.24,3.46,3.46,0,0,0-1.28-1.74,3.22,3.22,0,0,0-1.83-.53,5,5,0,0,0-2,.42,6.29,6.29,0,0,0-1.85,1.21,6,6,0,0,0-1.38,1.89,5.6,5.6,0,0,0-.54,2.5v11.15Z"/><path d="M365,285.62a10.84,10.84,0,0,1-3.87-.65,8.4,8.4,0,0,1-3-1.92,8.63,8.63,0,0,1-1.93-3.15,12.62,12.62,0,0,1-.68-4.29,12.48,12.48,0,0,1,.7-4.35,9.41,9.41,0,0,1,1.91-3.19,8.15,8.15,0,0,1,2.85-2,9,9,0,0,1,3.47-.67,8.57,8.57,0,0,1,3.1.55,6.55,6.55,0,0,1,2.51,1.67,7.94,7.94,0,0,1,1.68,2.86,12.34,12.34,0,0,1,.62,4.11c0,.22,0,.46,0,.7s0,.47-.07.69H358.4a9.79,9.79,0,0,0,.64,3.22,6.39,6.39,0,0,0,1.45,2.23,5.72,5.72,0,0,0,2.06,1.28,7.65,7.65,0,0,0,4.4.18,5.92,5.92,0,0,0,1.68-.72,6.25,6.25,0,0,0,1.42-1.21l1.7,1.66a8.13,8.13,0,0,1-1.85,1.66,7.57,7.57,0,0,1-2.27,1A10.36,10.36,0,0,1,365,285.62Zm-6.42-12H369.2a7.55,7.55,0,0,0-.36-2.42,5.57,5.57,0,0,0-1-1.86,4.21,4.21,0,0,0-1.57-1.18,5,5,0,0,0-2.06-.4,5.69,5.69,0,0,0-1.94.33,4.92,4.92,0,0,0-1.68,1.08,6.38,6.38,0,0,0-1.3,1.84A8.83,8.83,0,0,0,358.53,273.63Z"/><path d="M377.56,292.17a5.79,5.79,0,0,1-2-1.23l1.32-2.08.25-.39.26.17a1.29,1.29,0,0,0,.3.58,4.52,4.52,0,0,0,.8.61,4.34,4.34,0,0,0,.81.19,5.21,5.21,0,0,0,.9.07,3.28,3.28,0,0,0,1.93-.55,4.71,4.71,0,0,0,1.38-1.69,18.9,18.9,0,0,0,1.15-2.88l3.7-11.4c.42-1.3.83-2.59,1.23-3.86a19.94,19.94,0,0,0,.81-3.86h3.06a26.11,26.11,0,0,1-.93,3.94c-.43,1.33-.88,2.66-1.36,4l-4.85,13.65a8.23,8.23,0,0,1-2.62,4,6,6,0,0,1-3.67,1.17A7.07,7.07,0,0,1,377.56,292.17Zm-1-26.32h3.19L386.08,282l-1.36,3.77Z"/><path class="cls-3" d="M619.27,363.42l6.07.59a8.55,8.55,0,0,0-1.31,2.2,1.91,1.91,0,0,0,.64,1.69,7.66,7.66,0,0,0,6.75.06c.69-.33,1-1.44,1.85-2.7.59.76,1,1.83,1.82,2.25a6.74,6.74,0,0,0,3.33.65c4.88-.21,9.77-.42,14.63-.89,7.65-.73,15.28-1.69,22.92-2.5a17,17,0,0,1,3.49.06c2.79.29,5.48.66,7.9-1.55.93-.85,2.58-1,3.92-1.32q6.76-1.69,13.55-3.3c13.65-3.23,26.62-8.39,39.5-13.82a13.31,13.31,0,0,1,3.95-1.35,10.51,10.51,0,0,0,7.34-3.54,4.44,4.44,0,0,1,1.14-.81q10.11-5.52,20.24-11c.81-.44,1.91-.57,2.5-1.19,2.91-3.08,6.56-5.09,10-7.5,4.7-3.36,8.76-7.61,13.1-11.47,1.22-1.08,2.42-2.19,3.69-3.21,3.07-2.48,6.16-4.95,9.29-7.36,1-.77,2.17-1.34,4.23-2.59-1.22,4.22-3.81,5.9-5.86,7.9-4.49,4.37-9.12,8.58-13.71,12.84a14.9,14.9,0,0,1-2.65,2.27A82.73,82.73,0,0,0,786.35,326c-4.13,3.36-8.75,6.12-13.21,9.07a16.27,16.27,0,0,1-4.3,2.22c-2.82.77-5.16,1.91-6.66,4.61a6.24,6.24,0,0,1-2.76,2q-7.5,3.7-15.1,7.24a35.33,35.33,0,0,1-4.61,1.59c-1.11.34-2.43.3-3.36.89-8.63,5.58-19,6.3-28.31,9.79-3,1.14-6.85.18-10.83.18-3.19,3.25-7.84,3.67-12.48,4.23-5.77.71-11.53,1.52-17.28,2.37-.57.09-1,.77-2,1.51a14,14,0,0,0,7.09.42c8.27-1.25,16.55-2.39,24.83-3.59,1.38-.2,2.75-.46,4.12-.74,4.56-.95,9.19-1.64,13.65-2.93,8.45-2.44,16.94-4.7,25.25-7.75,10.84-4,20.23-10.52,30.48-15.49,4.35-2.11,8.13-5.4,12.17-8.17q5.76-3.93,11.5-7.89a8.67,8.67,0,0,0,1.63-1.31c5.66-6.25,12.71-10.91,18.88-16.56A115.34,115.34,0,0,0,825,297c5.55-6.58,11.1-13.2,16.31-20.06,3.52-4.62,6.47-9.66,9.66-14.53,2-3.11,4.21-6.15,6-9.4,1.55-2.84,2.64-5.92,3.94-8.9l.14.17a15.64,15.64,0,0,0-7.69,9.37,14.56,14.56,0,0,1-2.19,4.3c-6,8-12.15,15.88-18.28,23.78-1.43,1.83-3,3.51-4.55,5.29-1.29,1.53-2.53,3.11-4.22,5.2.69-5.24.73-5.21,2.16-7,2.91-3.61,5.77-7.27,8.65-10.91,3.31-4.21,6.78-8.3,9.88-12.66,3.24-4.54,6.18-9.3,9.13-14a102.18,102.18,0,0,0,6.6-11.45c1.7-3.79,2.56-8,3.89-11.92,1-3.09,2.48-6.07,3.29-9.21,1-4,1.69-8.18,2.43-12.3a58.62,58.62,0,0,0,1.21-8.28c.14-3.69-.11-7.4-.34-11.09,0-.45-.94-1.14-1.49-1.18s-1.15.55-1.58,1a1.84,1.84,0,0,0-.38,1.31c.48,4.26-2.06,6.36-5.79,7.93-1-1.78-.29-3.58.14-5.21,2.29-8.58.72-17.14.06-25.71,0-.5-.78-1-1.25-1.38-.1-.1-.42,0-1.06.13-.48,5.16-1,10.44-1.46,15.71-.16,1.61.07,3.51-.7,4.78-2.09,3.4-1.92,7.07-2.14,10.77a17.69,17.69,0,0,1-1.14,6.13c-1.66,3.74-4.35,7.08-4,11.52-4.61,7.77-7.25,16.71-13.9,23.28a25.74,25.74,0,0,0-6.65,9.73,5.19,5.19,0,0,1-1,1.85c-4.24,4.64-6.55,10.63-10.59,15.37s-8.75,9.06-12.72,13.91c-5.35,6.52-12.05,11.61-17.88,17.62a35.43,35.43,0,0,1-10.25,7c-4.23,2.06-9,4-11.8,8.33a8.91,8.91,0,0,1-3.16,2.7c-5.92,3.23-11.64,6.86-18.2,8.79A10.51,10.51,0,0,0,740,320c-3.29,3.09-7.45,3.52-11.55,4.25-.86.16-2.25,0-2.52.47-1.94,3.38-5.76,3.8-8.63,5.66a11.33,11.33,0,0,1-4.57,1.58,31,31,0,0,0-5.94,1.75c-9.45,3.09-18.65,7-28.45,9-3.84.78-7.88.88-11.27,3.25-5.49.52-10.65,3.29-16.37,2.36a4.48,4.48,0,0,0-3.3.59c-4.3,3.73-9.77,2.25-14.63,3.35-2.38.53-5,.42-7.48,1.09a18.7,18.7,0,0,1-6.23.57,11.65,11.65,0,0,0-6.71,1.15c-2.44,1.28-4.85.94-7.22-1.62,1.36-.65,2.31-1.4,3.33-1.54,5.77-.75,11.55-1.45,17.34-2,3.9-.35,7.61-.74,11.39-2.35,4.43-1.89,9.45-2.36,14.21-3.45,2.05-.46,4.1-.88,6.14-1.37a4.4,4.4,0,0,0,3.38-3.2l.1.05-9.4,2.3a31.36,31.36,0,0,1-3.38.82c-8.77,1.13-17.58,2-26.31,3.41-4.62.73-9.15,1.72-13.85,1.23-1.12-.12-2.23-.32-3.22-.47-.57-1.84.5-2.41,1.59-2.81a16.35,16.35,0,0,1,3.37-.86c7.81-1.07,15.63-2.09,23.45-3.14a17.78,17.78,0,0,0,2.72-.47c7.14-2.11,14.26-4.26,21.39-6.38,1.12-.33,2.31-.94,3.38-.79,4.51.62,8-1.45,11.69-3.57a61.93,61.93,0,0,1,7.7-3.3q15.18-6.26,30.36-12.51a8.27,8.27,0,0,0,2.42-1.38c2-1.72,4.31-1.41,6-1.35,3.23-2.39,6-4.4,8.76-6.5,4.81-3.7,11.08-4.94,15.48-9.3,3.1-.72,5.13-2.89,7.42-4.92,3.29-2.92,7.08-5.28,10.6-7.95,3.14-2.39,6.21-4.87,9.3-7.33.54-.44,1-1,1.52-1.45l22.52-19.8c1-.92,2.39-1.7,3-2.86,4.48-8,11.41-14,16.45-21.52,3.75-5.54,8.71-10.38,10.71-17.08a11.1,11.1,0,0,1,2.56-4.13c2.86-3.07,2.78-7.37,4.78-10.79,1.86-3.18,4.47-6,4.62-10a4.23,4.23,0,0,1,.62-2c3.52-5.66,4-12.37,6.41-18.42,1.65-4.13,1.76-8.6,1.49-13-4.13-1.05-4.13-1.05-7.55,4-.58-.79-1.33-1.38-1.49-2.1-.57-2.44-.2-5.18-2.82-7.34l-2.77,2.64c-1.08,1-2.45,1.87-3.67.84-.66-.54-.86-2.16-.61-3.13a19.52,19.52,0,0,1,2.15-5.12,9.33,9.33,0,0,0,.35-9.91,26.43,26.43,0,0,1-1.84-6.67c-.84-4-1.78-4.33-5.7-1.22.77,3.15.8,6.66,3,9.58a2.89,2.89,0,0,1,.78,1.86,4.24,4.24,0,0,1-1.24,2.29c-.79.72-2.53.06-2.89-1a6.14,6.14,0,0,1-.56-2.67c.56-4.19-1.05-7.75-3-11.42A27.42,27.42,0,0,0,803,122.79a30.53,30.53,0,0,1-10.8.35c-.82-2.11.16-3.2,1.6-3.52,3-.65,6-.94,9-1.5a21.87,21.87,0,0,0,3.31-1.24c-4.57-3-7.47-3.49-11.14-2.22a13.24,13.24,0,0,1-3.29,1.13c-8,.42-15.42,3.41-23.19,4.83-1.13.2-2.49.23-3.31.89-5.62,4.47-12.93,5.13-19,8.61-2.82,1.62-6,2.68-8.71,4.42-2.18,1.38-4.2,2.81-6.84,3.27a6,6,0,0,0-2.9,1.77c-5.67,5.61-12.68,9.37-19,14.08a62,62,0,0,0-7.17,6.6c-4.66,4.77-5.46,5.38-11.86,7.72-.3,3.55-2.3,6.44-4.74,9.32-5,5.86-9.64,12-14.14,18.2-3.54,4.89-6.64,10.09-9.93,15.16-.5.78-.9,1.63-1.42,2.4Q648.22,229.9,637,246.73a31.89,31.89,0,0,1-2.15,2.76c-2.68,3.18-5.9,6-6.56,10.48a4,4,0,0,1-1,1.81c-2.91,3.38-4.66,7.5-7.22,11.07-5,7-9.26,14.44-13.64,21.81-3.79,6.38-7.85,12.61-11.73,18.94a50.18,50.18,0,0,0-2.52,5,17.26,17.26,0,0,0-.46,3.22A173.5,173.5,0,0,0,604,304.23c2.11-3.6,4.49-7,6.71-10.57,1-1.57,1.81-3.25,2.84-4.78a12.68,12.68,0,0,1,2.35-2.45,1.39,1.39,0,0,1,1.28.05c.34.2.74.8.66,1.11a8,8,0,0,1-1.19,3.18,93.45,93.45,0,0,0-8.92,13.2c-2,3.34-4.42,6.5-6.56,9.82-3.79,5.85-7.88,11.5-11.76,17.29-1.32,2-.3,3.51,1.38,4.72,3.4.51,4.75-2.25,6.52-4.17,1.8.21,1.13,1.92,1.82,2.62a4.9,4.9,0,0,0,2.86,1.59,38.6,38.6,0,0,0,5.49-.72c1.13-.15,2.34-.32,3,1,.52.94-.63,2.2-2.54,2.69a36,36,0,0,1-4.11.83c-3,.4-6,.64-9,1.12-.75.13-1.9.81-2,1.39-.22,1.3.84,2.06,2.06,2.29s2.32.25,3.48.35,2.49.46,2.36,1.87c-.06.63-1.12,1.44-1.88,1.67-1.74.54-3.57.77-5.89,1.23.46,1.07.61,2.26,1.13,2.45a55.68,55.68,0,0,0,5.78,1.53c.71,1.89-1.25,1.8-1.58,2.82.25.26.47.65.8.83a2.66,2.66,0,0,0,1.35.32c3.46-.2,6.92-.59,10.38-.65,3.22-.05,6.3,1.26,9.69.45a41.15,41.15,0,0,1,10.39-1,27.91,27.91,0,0,0,11.58-1.95,19.46,19.46,0,0,1,6.16-1c2.45-.14,2.93.73,2.64,4.57-1.47.1-3,.11-4.52.33s-3.16.85-4.76,1c-6.7.79-13.4,1.5-20.11,2.2a2.86,2.86,0,0,0-2.51,2.06Zm144.31-93.67-.09,1.35.15-1.27a18.39,18.39,0,0,1,2.52-2.09c.33-.19,1.05.27,1.6.44-.33.5-.58,1.36-1,1.45A21.28,21.28,0,0,1,763.58,269.75ZM857.5,205.5l-.27,1.2.38-1.09c.71-2,.14-4.4,2.62-6.48A7,7,0,0,1,857.5,205.5Zm-185,1.5c-.13-.43-.26-.85-.4-1.28l.44,1.26c-1.95,2.55-3.86,5.12-5.85,7.63-.51.63-1.19,1.62-2.35.15C666.3,211.46,668.15,208,672.48,207Zm166.6,54.54-.44-1.51.12,0c.11.5.23,1,.34,1.52-2.37,2.77-5.2,5.27-7,8.37-2.6,4.5-6.16,8-9.88,11.39-.21.19-.82-.06-1.37-.12,0-.62-.27-1.47,0-1.85,4.35-5.36,8.78-10.66,13.2-15.95A5.34,5.34,0,0,1,839.08,261.54ZM648,239.72a3.73,3.73,0,0,1,.33-1.19c.16-.24.6-.3.91-.44-.09.34-.07.79-.29,1a3.51,3.51,0,0,1-1.13.48,6.74,6.74,0,0,1-1,5.34c-3.48,4.94-7,9.84-10.52,14.75a3.92,3.92,0,0,1-4.21,1.76c0,1.59.1,3.19,0,4.77,0,.39-.85.71-1.44,1.17-1.26-2.67.86-4,1.58-5.82,1.6-2.75,3.11-5.58,4.85-8.25,2.59-4,5.29-7.91,8.1-11.75C645.8,240.68,647.06,240.31,648,239.72Zm30.7,13.7c0-1.62-.16-3.25-.08-4.87.22-4.57,1.71-6.24,7.21-8.06,1.65,2,3,4.19,1.79,6.84-1.37,2.95-3.17,5.77-6.56,6.77-.7.21-1.69-.57-2.55-.89-.72,5.37-5,6.24-9.54,7.9a56.4,56.4,0,0,1-1.13-6.49c-.18-3.21,1.64-5.21,5.28-6.16,2.7-.69,3.61,1.28,4.56,3.16C678,252.23,678.37,252.81,678.72,253.42Zm105-67.14c.26-2.73.34-5.5.83-8.18a5.2,5.2,0,0,1,4.22-4.62c5,5,5,5.14,1.21,10.23-.27.37-.45.8-.73,1.16-1.85,2.46-1.86,2.45-5.72,1.19a21.48,21.48,0,0,1-1.14,4c-.93,1.84-2.22,3.51-3.28,5.29-1.55,2.56-1.81,2.66-5.86,1.57-1.36,5.91-4.06,10.64-10.9,11.23-.31,2.11-.6,4.15-.86,5.89,2.65,4.51,2.65,4.51,3.32,15.28l-5.21,3.25a55.44,55.44,0,0,1-4.06-4.17c-2.19-2.76-.52-6.24-1.08-9-1.8-.91-3-1.08-4.05.45-1.41,2.13-2.9,4.2-4.37,6.29,5.28-.5,6,0,6.57,4.36.13.92,0,1.87.24,2.77.87,4.28-1.36,7.11-4.44,9.49-2.57,2-5,.92-5.47-2.32a19.48,19.48,0,0,1,3.39-14.53,4.62,4.62,0,0,1-1.05.81c-3.74,1.31-4.38,1.09-6-1.94l-1.83-3.53A24.26,24.26,0,0,0,740,237.32a14.41,14.41,0,0,1,1.46,3.91,8.24,8.24,0,0,1-1.91,7.19,5.5,5.5,0,0,1-6.3,1.57c-2.27-5.63-2.26-6.76.1-14.2-1.2.13-2.38.55-3.36.27s-2-1.23-4.5-2.82c2.56,4.52.51,7-.79,9.5,7.68,7.11,7.22,12.29-1.23,17.05-.34.19-.89,0-1.65,0a10,10,0,0,1-2.72-7.47,21.24,21.24,0,0,0-2.06-8.75c-.47-1.07-.8-2.19-1.24-3.27a6.22,6.22,0,0,1,2-7.56c2.11-1.81,4.46-3.35,6.69-5a13.7,13.7,0,0,0,2.06-1.81c.25-.28.31-1.18.17-1.25-.52-.29-1.45-.68-1.73-.44-3,2.52-5.45,6.07-9.31,7.06-4.41,1.14-5.73,6.06-10,7.14a9.71,9.71,0,0,0-1.93.87c-1.7-.14-1.94-2-3.4-1.34,0,1.17.4,2.54-.07,3.44-1.52,2.87-4.26,4.15-7.38,4.59a2.33,2.33,0,0,1-2.27-2.89c.69-3.76-.72-6.8-2.7-9.76a20.87,20.87,0,0,0-1.48-2.36c-1.9-2.1-2-4.7-2-7.24a4.5,4.5,0,0,1,1.32-3c1.92-1.62,4.08-3.05,7-2.48,1.23,3.06,2.44,6,3.69,9.13l-3.53,5.8c1.5.12,2.52.52,3.1.18a17.7,17.7,0,0,0,3.75-3c1.94-2,3.71-4.19,5.55-6.29l-5.58,2c-2.34-1.75-2.71-4.13-3.45-6.25-1.51-4.35-.72-6.28,3.28-8.51,1-.54,2.07-.89,3.17-1.36,1.9,2.62,3.66,5,5.41,7.41-.44-2-.76-4.12-1.34-6.12a9.43,9.43,0,0,1,1.16-8c-1.4-.11-3-.2-3.44-1.74a58.42,58.42,0,0,1-1.46-7.36,2.25,2.25,0,0,1,.61-1.87c2.24-1.44,3.4-4.31,6.2-5,4.16,7,4.06,8.71-.57,13.93a22.06,22.06,0,0,0-1.57,2.25c4.94-.22,7.89-3.24,10.59-7.26a24.8,24.8,0,0,1-1.93-2.11c-4.81-6.66-4-10.48,2.92-14.79a6.77,6.77,0,0,1,1.75-.39c.79,1.14,1.74,2.4,2.54,3.74a9.13,9.13,0,0,1,1,2.57,3.33,3.33,0,0,1,0,2.05c-1,2-2.09,3.85-3.72,6.8a36.45,36.45,0,0,1,4-2.2,38.8,38.8,0,0,1,4.19-1c-.47-1.88-.55-3.58-1.31-4.89-2.18-3.75-1.51-7.74-1-11.6.43-3.52,4.23-5.08,7.43-3.43,1,.48,1.61,1.8,3.3.59.09-4.48-.31-9.69,6.33-11.27a33.18,33.18,0,0,1,1.55,3.23c2,5.75,1,8.63-4.46,11.29-2.7,1.3-4.23,3.56-6.18,5.51-.58.59-1.28,1.49-.1,2.45a9.61,9.61,0,0,0,6.17-4,12,12,0,0,1,6.55-4.66c2.63.8,4.05,2.59,5.37,4.55,1.83,2.72-1,5.36-.32,8,2.29,1.27,3.59.6,4.76-1.38,2.5-4.26,5.95-6.94,11.72-5.72,0-1.55,0-2.9,0-4.25a7,7,0,0,1,2.89-5.35,3.26,3.26,0,0,1,4.45.27c2.81,3.54,3.44,6.14.35,9.22-4.11,4.08-8.08,8.29-12.14,12.42a9,9,0,0,1-2.69,2.2c-3.66,1.47-5.24,4.41-6.12,8a22.7,22.7,0,0,0,7.34-4.93c2.41-2.35,4.68-4.74,7.93-6.37,2.83-1.42,4.63-4.85,7-7.32.42-.45,1.21-.55,2.28-1Zm-99.38,172.9c-1.27-2.09-.58-3.38,1.11-3.35,3.66.05,6.65-1.69,9.92-2.85,7.19-2.56,14.55-4.68,21.84-7,1.32-.42,2.71-.67,4-1.17,5.84-2.3,11.76-4.45,17.47-7,8.67-3.94,17.29-8,25.74-12.38,5.13-2.67,9.86-6.07,14.82-9.08,1.32-.8,2.65-2.06,4.68-.77-.33,2.85-2.66,4.45-4.72,5.43-6.48,3.07-11.76,8.42-19,9.95a5.77,5.77,0,0,0-1.86.92c-3.14,2-6.4,3.83-9.37,6.06-5,3.73-11.16,4.48-16.54,7.17-4.22-.71-7.74,1.75-11.07,3.36-5.72,2.78-11.88,4-17.67,6.26C697.32,357.24,690.35,356.18,684.33,359.18Zm-28.14-6.29a13.94,13.94,0,0,1,2.95-1.26c4.12-.75,8.3-1.19,12.39-2.06,6.59-1.41,13.13-3.08,19.69-4.62a12,12,0,0,1,2.76-.41c3.88,0,7.24-1.5,10.62-3.13a22.19,22.19,0,0,1,5.85-2.11,14.55,14.55,0,0,0,5.8-2.11,17.69,17.69,0,0,1,5.2-1.9c1.9-.48,3.4.22,3.44,1.37.06,1.42-.94,2-2.07,2.41a18.39,18.39,0,0,1-2.62,1c-8.86,1.9-17,6.39-26.07,7.49-5,2.47-10.8,2.4-16,4.72-3.91,1.75-8.51,2.1-12.72,3.52a15.72,15.72,0,0,1-5.54.39C658.14,356.07,656.82,355.13,656.19,352.89Zm8.18-74a10.66,10.66,0,0,1-1.42-1.21,14.6,14.6,0,0,1-1.6-2.25,3,3,0,0,1,.76-4.31,8.66,8.66,0,0,1,2.25-1.6c2.28-.91,5.25-1.06,6.79-2.63a32.67,32.67,0,0,1,5.83-4.72,4.93,4.93,0,0,1,1.58-.28c1.87,1.91,2.8,4.66,1.42,6.78-1.77,2.73-4.16,5.65-8.55,4.39C669.93,275.94,668.4,278.87,664.37,278.89ZM723.9,150c.62-1,.89-2,1.55-2.44,2.55-1.62,5.27-3,7.83-4.54A173,173,0,0,1,762,128.87c1.5-.59,3-.19,2.88.75a3.49,3.49,0,0,1-1.12,2.32,21.91,21.91,0,0,1-4.41,2c-1.75.62-3.6,1-5.33,1.66-4.11,1.59-8.28,3.1-12.24,5-3.5,1.7-7.3,2.89-10,6.21-1.37,1.71-3.74,2.66-5.75,3.79C725.71,150.81,724.93,150.3,723.9,150Zm35.7,13.72c2.7,1.23,3,3.84,3.75,6.22a4.92,4.92,0,0,1-1.26,5.07c-1.54,1.65-2.83,4.23-5.36,3.77-3-.55-3-3.69-3.56-6.08-.44-1.83-.59-3.73.85-5.2S757.08,164.05,759.6,163.71Zm10,58.59c-3-2.72-3.29-6.13-3.19-9.92,2.18-1.83,3.47-4.84,6.79-5.3,2.35,1.56,2.7,3.89,3,6.19.27,1.82.84,3.71-.49,5.38S773,222.44,769.63,222.3ZM677,240.15c-2.49-2-3-5-3.42-7.87-.37-2.62,2-5.39,4.77-5.78a2.91,2.91,0,0,1,1.93.44c3.16,2.19,4.13,5.49,3.81,9-.29,3.15-3.29,3.42-5.61,4.23A4.79,4.79,0,0,1,677,240.15Zm119.7,50.69,1.33.78c-.47,1.19-.63,2.74-1.48,3.51-4.1,3.71-8.26,7.36-12.64,10.72-3.47,2.65-7.29,4.85-11,7.24a15.33,15.33,0,0,1-2.38,1.38,1.27,1.27,0,0,1-1.2-.31c-.23-.55-.46-1.43-.19-1.81a5.86,5.86,0,0,1,2.48-2.28c4.65-1.36,7.83-4.74,11.32-7.74C787.5,298.44,792.13,294.67,796.71,290.84Zm-134-49.42a6.33,6.33,0,0,1,4.94-6.85c1.9-.5,3.22.7,4.6,4.19.17.43.37.85.51,1.29,1.06,3.38-.64,6.3-4.27,7.36-2.12.62-4.49-1.2-5.44-4.23A15.44,15.44,0,0,1,662.7,241.42Zm43.64,9.9c-.46-1.81-1.12-4-1.51-6.18a4.1,4.1,0,0,1,.6-2.6,7.66,7.66,0,0,1,5.53-3.71,2.64,2.64,0,0,1,2.28,1c.68,1.9,1.48,4,1.26,5.91-.19,1.61-1.5,3.29-2.72,4.55S708.88,252.67,706.34,251.32Zm-21.68-46.4c6.74,4.42,7.12,7.41,1.7,12.33-.17.15-.32.34-.49.49-2.39,2-4.19,1.44-5-1.7-.27-1.13-.43-2.28-.59-3.43A6.73,6.73,0,0,1,684.66,204.92Zm69.46,117.71c-.37.8-.44,1.35-.75,1.57-6.43,4.72-14.14,7-21,10.8a3.63,3.63,0,0,1-2,.45,2.39,2.39,0,0,1-1.66-1,2,2,0,0,1,.23-1.85,8.66,8.66,0,0,1,2.88-1.83c4.62-1.6,9.17-3.23,13.28-6,1.87-1.27,4.27-1.79,6.49-2.46A7,7,0,0,1,754.12,322.63ZM807.21,295c-1.17,4.29-3.29,7.36-6.56,9.28a25.43,25.43,0,0,0-8.82,7.7,7.12,7.12,0,0,1-2.72,2.09c-.42.21-1.27-.14-1.78-.45a1.3,1.3,0,0,1-.21-1.25,11.27,11.27,0,0,1,1.93-2.85c4.4-4.11,8.81-8.23,13.38-12.16C803.74,296.21,805.6,295.74,807.21,295Zm-129.4,62.42c-.79,1.79-.9,2.53-1.33,2.9a4,4,0,0,1-1.9.69c-5.7,1-11.37,2.59-17.1,2.91-4.35.24-8.59.78-12.86,1.4a22.93,22.93,0,0,1-3.93-.21c2.13-2.52,4.51-2.8,6.68-3.21,6.1-1.16,12.45-.77,18.4-2.95a4.3,4.3,0,0,1,2.74-.12C671.38,359.84,674,358.56,677.81,357.39Zm26.76-96.48c.67,3.39,1.25,6.26,1.8,9-2.3,2.37-4.36,4.36-7.37,4.91C695.3,265.6,696,263.51,704.57,260.91Zm-6.84-63.78c.78,1.28,1.71,2.81,2.63,4.34,1.4,2.35.77,4.35-1,6.25-1.4,1.55-2.73,3.41-5.13,2.61s-2.51-3.23-2.54-5.22a13.09,13.09,0,0,1,1.19-5.23A4.34,4.34,0,0,1,697.73,197.13Zm86.44,0a68.29,68.29,0,0,0,2,7.61c1.21,3.14-.27,5.3-3,6.69a2.64,2.64,0,0,1-3.59-1,9.49,9.49,0,0,1,1.39-12C781.67,197.83,782.87,197.66,784.17,197.13ZM658.53,240.8a24.93,24.93,0,0,1,2.75,3.92c1.44,3.22.46,5.47-2.84,7.12-1.36.68-2.77,1.28-4.1,1.89a6.44,6.44,0,0,1-1.63-7.26A8.39,8.39,0,0,1,658.53,240.8Zm55.74,11.7a12.83,12.83,0,0,1,3.43,8.38,4.11,4.11,0,0,1-3.5,4.39,5.08,5.08,0,0,1-5.28-2.43,4.25,4.25,0,0,1,.29-5.14C710.67,256,712.33,254.48,714.27,252.5Zm-24,28.15c-3.43-3-4.1-3.87-4-5.65a8.89,8.89,0,0,1,3-6.05,3.25,3.25,0,0,1,5.22.9C696.71,274.61,695.79,277.15,690.31,280.65Zm59-24.07c-4.21-5-4.39-7.25-.87-10.64a4,4,0,0,1,4.44-1.17,3.68,3.68,0,0,1,2.48,3.83,11,11,0,0,1-1.15,4.64A5.73,5.73,0,0,1,749.27,256.58Zm-17.81,14.07-6.71,3.61c-.86-3-1.56-5.35-2.49-8.56l2.9-1.86,4.1-2.63C732.61,263.87,732,267,731.46,270.65Zm90.17-4.23c0,.4.08.89-.11,1.19-4.45,6.89-10.32,12.58-15.77,18.62a3.85,3.85,0,0,1-1.62,1.28,8.89,8.89,0,0,1-2.51-.09c.09-.64,0-1.41.32-1.88a9.09,9.09,0,0,1,2.39-2.51c2.82-1.78,4.75-4.31,6.81-6.85,2.78-3.42,6.16-6.34,9.31-9.44C820.71,266.49,821.23,266.52,821.63,266.42Zm-125.86-7.19c-2-1.07-2.56-2.82-2.75-4.7-.3-3,1.19-5.3,3.69-5.92,2.82-.69,5.34.92,6.34,4a2.86,2.86,0,0,1-1.22,3.63C699.86,257.39,697.75,258.28,695.77,259.23ZM768.2,154.31c2.62,1.78,3.72,3.91,3.66,6.22a16.28,16.28,0,0,1-1.69,5.88,2.77,2.77,0,0,1-4.65.4c-.68-.87-1.51-2.05-1.42-3C764.44,160.43,764.91,157,768.2,154.31ZM682.17,259a6.42,6.42,0,0,1,4.91-3.78,3.61,3.61,0,0,1,2.54.61c1.84,1.43,2.49,5.13,1.09,6.9s-2.77,3.69-5.48,4C682.8,264.67,682.51,261.74,682.17,259ZM790.32,200.8c-1.91-3.63-1-7.27-.73-10.77.06-.72,1.62-1.77,2.54-1.84a3.62,3.62,0,0,1,2.76,1.51c3.34,5.34,2.56,7.89-3.06,10.87A8.89,8.89,0,0,1,790.32,200.8Zm-36.58-50.14c2.46,2.14,4.13,4.62,3.17,7.88-.75,2.55-2.64,4.25-5.91,4.57-1-2.05-2.07-4.05-3.15-6.16C749.93,154.73,750.55,151.72,753.74,150.66ZM721.05,165a23.74,23.74,0,0,1,2.56-3.91,4.09,4.09,0,0,1,5.67,0,4.18,4.18,0,0,1,.45,5.67,20.16,20.16,0,0,1-3.52,3.32,2.53,2.53,0,0,1-3.62-.92A35.94,35.94,0,0,1,721.05,165Zm-4,104.42a4.55,4.55,0,0,1,1.57.79,7.33,7.33,0,0,1,1,7.67,3.71,3.71,0,0,1-3.17,2.27,4.19,4.19,0,0,1-4.08-2C710.2,274.72,712.66,270,717.09,269.45ZM676,282.63a9.75,9.75,0,0,1,.2-2.38c.8-2.25,2.13-4.08,4.54-4.79,1.3-.39,2.33,1.32,3,4.81a14,14,0,0,1,.27,2.05c.09,2.57-3.09,5.19-5.67,4.57a2.57,2.57,0,0,1-1.52-1.26A17.94,17.94,0,0,1,676,282.63Zm43.5-108.28c-1.78,1.83-3,3.23-4.33,4.42-2.28,2-4.18,1.41-5.2-1.46-1.38-3.84-.57-5.68,3.47-7.54a18.8,18.8,0,0,1,3.41-.86Zm-63.46,94a6.92,6.92,0,0,1-5.4,3.74,3.22,3.22,0,0,1-2.5-.67c-2.36-3.08-2.79-5.69.34-7.73a25.56,25.56,0,0,1,4.13-1.81A8.9,8.9,0,0,1,656,268.37ZM801.5,190.1c-4.52-5.5-4.31-9.21.16-11.92a2.49,2.49,0,0,1,3.85,1.48C806.66,183.9,805.6,187.3,801.5,190.1Zm-8.8-28.95c-5.34-6.79-5.09-9.77.78-13a14.5,14.5,0,0,1,3.91,7.37Zm-28.23,75c3.46,4.54,3,8-1.47,10.82-2.11,1.35-4.23.36-4.58-2.13C757.84,240.78,759.07,239,764.47,236.16Zm-90-22.44c2.44,1.05,3.13,3.11,4,4.91.4.88.41,2.6-.16,3.16-1.73,1.67-3.39,3.8-6.24,3.58a1.57,1.57,0,0,1-1.13-.69c-.47-1-1.25-2.21-1.05-3.15C670.56,218.44,671.66,215.46,674.5,213.72ZM777.78,157c-4.93-6.66-4.47-9.65,1.35-12.51,4.15,5.26,4.16,5.26.77,10C779.39,155.27,778.75,155.9,777.78,157Zm9.87,9.32c-.7,2.35-1.85,4.43-4.64,5.09-3.69-1.84-3.86-5-3.17-8.27.44-2.14,1.63-3.74,4.33-3.66C785.29,161.7,786.42,163.91,787.65,166.34Zm-83.45,12c2.28-.18,4.36,2.74,3.41,4.9a9,9,0,0,1-5.44,5.07,2.77,2.77,0,0,1-2.32-1C697.54,184.12,700.24,178.65,704.2,178.35Zm36.2,75.47c1,1.93,1.77,3.31,2.44,4.73a3.16,3.16,0,0,1-1.17,4.21,6.37,6.37,0,0,1-3,1.39A3.86,3.86,0,0,1,735.7,263c-2.39-3.1-1.78-5.77,1.65-8A21.25,21.25,0,0,1,740.4,253.82Zm-84.12,45.31c-.93-1.87-1.89-3.19-2.24-4.65-.54-2.24,1-4.13,3.71-5,1.73-.57,3.26.29,4.34,2.44,1.29,2.58.81,4.25-1.79,5.71A32.75,32.75,0,0,1,656.28,299.13Zm2.25-32.53c-.58-1.83-1-3.08-1.37-4.36a8,8,0,0,1-.34-2.05c0-2.58,4-5.46,6.59-4.61a3.09,3.09,0,0,1,1.47,1.37c.89,1.53,1,3.23-.3,4.51C662.84,263.19,660.84,264.66,658.53,266.6Zm14,24.31a36.72,36.72,0,0,1-4.82,1.62,2.55,2.55,0,0,1-2.15-1.15c-1.23-3-.07-7.24,2-8.05,2.27-.88,4.58,1.53,5.44,5.76C673.07,289.49,672.78,290,672.52,290.91Zm14.16,6.71c-1.77,1.95-3.71,1.75-5.5,1.55-.72-.09-1.9-1.05-1.91-1.63a11.69,11.69,0,0,1,.8-5.3c.47-.94,2.28-1.51,3.56-1.66,1.64-.2,2.42,1.26,2.69,2.65A34.79,34.79,0,0,1,686.68,297.62Zm72-149.64a4.36,4.36,0,0,1,2.83-4.52c1.44-.5,3,.11,4.11,1.74a8.88,8.88,0,0,1,1,1.8c.85,2.08-.36,4.33-2.87,5.49-1.89.86-3.93-.31-4.7-2.73C758.85,149.11,758.76,148.42,758.66,148Zm15,90.29-3.12-5.46a2.67,2.67,0,0,1-.25-.63c-.82-2.6,2.44-6.18,5.23-5.64a2.24,2.24,0,0,1,1.56,1.15c.33,1.27.79,2.81.35,3.9A54.53,54.53,0,0,1,773.68,238.27Zm-143,53.07c.17-2.33,3-4.5,5.47-4.25a3.25,3.25,0,0,1,2.56,3.59c-.2,3.06-2.09,4.85-4.89,4.6A3.82,3.82,0,0,1,630.68,291.34Zm136.51-38.46c1,4.47,1.08,5.23.64,6.13a4.91,4.91,0,0,1-4.63,2.44,2.59,2.59,0,0,1-2.31-2.24c-.46-1.7-.17-3.33,1.42-4.27A40.56,40.56,0,0,1,767.19,252.88Zm-29.28,28.29c-.06-3.51-.25-5.58-.09-7.61a3.23,3.23,0,0,1,3.62-2.54,2.92,2.92,0,0,1,2.54,2.9,6.46,6.46,0,0,1-1,3.83C742,278.9,740.43,279.52,737.91,281.17Zm-92.59-5.71c-3.11.4-4.65,2.75-7.19,2-1.91-2.24-1.63-4.44-.31-6.57a3.33,3.33,0,0,1,5.75-.1C644.27,271.87,644.53,273.26,645.32,275.46Zm49.49,9.93a51.85,51.85,0,0,1,1.23,5.8c.19,1.7-2.55,3.36-3.92,2.55-2.06-1.23-3.55-4.56-2.63-6.44C690.51,285.21,692.29,284.5,694.81,285.39Zm-20.23,11.2a42.07,42.07,0,0,1,.75,4.58c.11,2.71-.19,2.94-4.19,4.19C666.22,299.73,666.56,298.67,674.58,296.59ZM804,158c.28-.93.83-3.11,1.61-5.21a2,2,0,0,1,3-.6c2.86,3.22,3.61,7.35-1.29,9.34C805.6,162.26,804,161.19,804,158ZM625.16,293.26a3.78,3.78,0,0,1,1.18.63c1.56,1.89.77,3.9.06,5.79a3.59,3.59,0,0,1-3.84,2.26,2.56,2.56,0,0,1-1.69-.94,4.36,4.36,0,0,1-.17-5.12A4.91,4.91,0,0,1,625.16,293.26ZM735.23,160.83c-1.92-1.81-2.6-3.76-1.42-5.28a14.2,14.2,0,0,1,4.84-3.4c1.11-.57,2.71,1.21,2.4,2.54C740.35,157.76,738.85,160.14,735.23,160.83ZM748.7,268.35c.08-3,1.36-4.47,4.12-5.22a2.06,2.06,0,0,1,2.44,1.78c.33,2.79-.79,5.07-3.31,6.1a2.77,2.77,0,0,1-2.34-.67A4.94,4.94,0,0,1,748.7,268.35ZM819,146.76c-1.55,1.77-2.74,3.09-4.83,3.2a27.78,27.78,0,0,1-1.43-3.13c-.88-2.74-.54-3.63,2.26-5.59.41-.28,1.25,0,2.08.08ZM661.53,220.34c.09.54.49,1.34.24,1.74-2.16,3.51-4.43,7-6.68,10.42a.88.88,0,0,1-.56.38c-.42.05-.95.17-1.26,0a1.49,1.49,0,0,1-.63-1.12,3.67,3.67,0,0,1,.47-1.94C655,227,657,224.14,659,221.37a5.06,5.06,0,0,1,1.62-1.15C660.79,220.13,661.09,220.27,661.53,220.34ZM802,168.94A30.71,30.71,0,0,1,797.8,170c-2,.2-3.29-1.06-2.9-2.82a10.94,10.94,0,0,1,1.55-3.73,2.41,2.41,0,0,1,4.39.32A33.44,33.44,0,0,1,802,168.94ZM714.77,294.17c-2.5-5.25-1.52-6.78,5.16-8.05C721.55,291.8,721.06,292.58,714.77,294.17Zm87.54-93.26c.94-2.73,1.91-5,4.45-6.19a1.89,1.89,0,0,1,1.66.75,5.14,5.14,0,0,1-1,6.35,4.6,4.6,0,0,1-3.15.76C803.61,202.51,803,201.54,802.31,200.91Zm-24.82,42.45c1.88.7,2.26,2.33,1.93,3.94a6.39,6.39,0,0,1-4.89,5.07C771.7,247.65,771.87,247.16,777.49,243.36Zm-131.59,61c-.34-1.75-.65-3-.82-4.33-.22-1.63-.22-3.28,1.64-4,1.54-.62,2.58.48,3.59,1.36,2.22,2,2.14,3.93-.36,5.5A23.57,23.57,0,0,1,645.9,304.34Zm54.17-21.28a3.74,3.74,0,0,1,4.13-4.12,2.86,2.86,0,0,1,2.18,3.63,13.92,13.92,0,0,1-2.09,4.14c-.62.9-2.49.61-3-.39C700.75,285.1,700.35,283.79,700.07,283.06Zm82.22-61.22c0-.22,0-.45,0-.68a3.15,3.15,0,0,1,3.64-3.1c1.76.38,1.73,1.85,1.76,3.24a5.17,5.17,0,0,1,0,.68c-.17,2.79-.89,4.1-2.42,4.38C783.54,226.67,782.28,224.77,782.29,221.84Zm7.41,9.57c1,3.18,1.68,5.59-.26,7.78a4,4,0,0,1-3,1c-.5,0-1.19-1.35-1.28-2.15C784.88,235.19,786.16,233.18,789.7,231.41ZM655.6,275.7c.87,2.31,1.58,4.17,2.21,5.83-.21.48-.24.76-.39.88-2.51,2-4,2-5.79,0-1.21-1.34-1-2.75,1-4.67A26.22,26.22,0,0,1,655.6,275.7ZM768.82,136.92c0-1.35,1.68-2.69,3.43-2.79a2.93,2.93,0,0,1,3.1,2.94c-.07,2-1.77,4-3.23,3.78A4.54,4.54,0,0,1,768.82,136.92Zm43.57,31.28a2.37,2.37,0,0,1,.67.19,5.16,5.16,0,0,1,2.16,4.77c-.3,1.49-2.33,2.81-4.35,2.8a1.4,1.4,0,0,1-.66-.19,2.47,2.47,0,0,1-1.2-2.93C809.55,169.94,811,168,812.39,168.2ZM662.52,303.1c.38.61,1.28,1.39,1.19,2-.3,2.1-1.13,4.12-3.17,5.1-.61.3-2.18-.05-2.38-.51a6,6,0,0,1-.6-3.88C658.22,303.93,660.23,303.47,662.52,303.1Zm139.62-155c-3.75-2.61-4.54-4-3.68-6.74.23-.75,1.24-1.85,1.78-1.79a3.86,3.86,0,0,1,2.67,1.58C804.08,143.29,803.8,145.54,802.14,148.1ZM821,166c-2.92.06-3.59-1.83-3.79-4s.52-4.14,2.73-5c.53-.2,2.06.59,2.07.95C822.05,160.67,822.34,163.43,821,166ZM644.73,259.73c-.39-3.72,1.22-5.26,3.28-6.53a1.81,1.81,0,0,1,2.62,1.33c.21,1.48,0,2.84-1.49,3.55A45.38,45.38,0,0,1,644.73,259.73Zm56.91-90.24c2.62-5.86,3.54-6.59,8.53-7.21C708.47,165.71,706,167.73,701.64,169.49ZM637,316.25c.67-.83,1-1.71,1.5-1.78a10.18,10.18,0,0,1,4,.07,2,2,0,0,1,0,3.87,5.11,5.11,0,0,1-3.29.16C638.29,318.24,637.74,317.08,637,316.25Zm-13.49-5.19a4,4,0,0,1,5.78-2.83c1,.58,1.33,2.33.45,3a21.46,21.46,0,0,1-3.55,2.09A2.07,2.07,0,0,1,623.53,311.06Zm62.2-8.09c1.15,2.32,3.27,3.78,1.53,6-.94,1.21-2.43,2.3-4.27.66C683,307.45,682.7,305.12,685.73,303Zm17.82-2.75c-.77-3.25.31-5.25,2.63-6.67.47-.3,1.61-.33,1.84,0,.49.64,1,1.76.75,2.37C707.86,298,706.06,299.25,703.55,300.22Zm-57.9-18.41c.5,3.3.73,5.78-.68,8.07a2.08,2.08,0,0,1-1.7.79,2.19,2.19,0,0,1-1.56-1.14C640.8,286.79,642,284.23,645.65,281.81ZM823.77,179.46c-1.52-2.75-1.32-5,.46-7.11a1.35,1.35,0,0,1,1.2-.4c.57.24,1.29.69,1.44,1.2C827.71,176,826.64,177.94,823.77,179.46ZM689.61,196.85c-.16-3.3,1-5.33,3.23-6.74a2,2,0,0,1,1.84.26,2,2,0,0,1,.42,1.82C694.14,194.39,692.37,195.72,689.61,196.85ZM635,302.76a12,12,0,0,1,2.74-1.07,2.64,2.64,0,0,1,1.76.79c.46.45,1,1.26.9,1.74a6,6,0,0,1-1.51,2.72c-.21.2-1.63-.45-2.13-1A16.57,16.57,0,0,1,635,302.76Zm14.75,19.85c.26-1.1.22-1.88.59-2.31a4,4,0,0,1,4.36-1.25c.47.14,1.14,1.21,1,1.49-.47.94-1.13,2.17-2,2.41C652.59,323.28,651.23,322.78,649.73,322.61ZM787.4,137.93a48.79,48.79,0,0,1,.84,5.15c.09,1.5-.49,2.71-2.39,2.45C783.87,139.84,783.87,139.84,787.4,137.93Zm5.45,74.91c-.51-2.27.53-4,2.49-4.47a1.55,1.55,0,0,1,2,1.33,3.37,3.37,0,0,1-1,3.67c-.48.41-1.28.92-1.73.77A6,6,0,0,1,792.85,212.84Zm39.34-53.06c2.32,2.81,2.67,4.43,1.07,5.74a2,2,0,0,1-1.88,0C829.68,164.15,830,162.47,832.19,159.78ZM620.91,281.07c-.13-2.9.69-5.33,4.11-6.74C625.82,278.14,623.46,279.64,620.91,281.07ZM816.85,205.3c-2.12-1.69-1.86-3.05-1.17-4.32s1.4-2.54,3.13-2.24c1,.18,1.24,2.07.33,3.66A26.09,26.09,0,0,1,816.85,205.3ZM628.25,322.73c-.49-.49-1.25-1-1.51-1.66a1.83,1.83,0,0,1,.75-1.63,8.35,8.35,0,0,1,3.12-1c.45,0,1.39.71,1.39,1.12a3,3,0,0,1-.83,2.18C630.53,322.3,629.51,322.35,628.25,322.73Zm42.84-6.27a36.43,36.43,0,0,1,.35-5.24,1.85,1.85,0,0,1,1.55-1,3.74,3.74,0,0,1,2,1.41,1.94,1.94,0,0,1,0,1.88C674.36,314.32,673.36,314.83,671.09,316.46Zm-21.74-1.75c-.65-4.14-.66-4.17,1.27-5.45.9-.6,1.69-.54,2.08,1.06Zm-39.24,13.86c-1.85.79-3.67,1.66-5.57,2.31-.39.13-1.13-.46-1.53-.89-.16-.16.06-1,.34-1.18C605.31,327.62,607.39,326.83,610.11,328.57ZM798.2,222.32c.77.35,1.32.42,1.53.73a3,3,0,0,1-.73,4.18c-.44.29-1.58.29-1.8,0a3.23,3.23,0,0,1-.7-2.37A9.17,9.17,0,0,1,798.2,222.32ZM659.36,317.64a17.21,17.21,0,0,1,3.54-1.48c1.22-.22,2.75,1.22,2.26,1.81a7,7,0,0,1-2.57,1.7,2.53,2.53,0,0,1-1.93,0C660.18,319.41,660,318.65,659.36,317.64Zm195-85.55c-.06,4.63-.08,4.62-2.92,6.64C851.09,236.25,851.63,234.25,854.36,232.09ZM608.85,321.27c-2-.49-3.38-.42-3.81-1-1.28-1.87,0-3.37,1.38-4.61.23-.21.8,0,1.46,0C608.12,317,608.38,318.52,608.85,321.27Zm5-7.67,4.45-2c.36,1.82.62,3.07.86,4.27C616.32,317.49,615.21,316,613.9,313.6ZM780.78,124.35a2,2,0,0,1,0-.64,2.71,2.71,0,0,1,4.34-1.06,1.76,1.76,0,0,1,0,1.72,2.94,2.94,0,0,1-3.57.95C781.24,125.16,781,124.68,780.78,124.35ZM640.23,326.13c0-.14-.08-.41,0-.57.23-.38.49-.91.84-1a9.53,9.53,0,0,1,2.64-.43,1.27,1.27,0,0,1,.95.77,1.42,1.42,0,0,1-.35,1.2C642.75,327.5,640.7,327.53,640.23,326.13Zm-23.9-.32a7.92,7.92,0,0,1,1.53-1.89c.95-.65,2.17-.95,3,.22a1.84,1.84,0,0,1-.18,1.76,10.11,10.11,0,0,1-3.08.94C617.3,326.89,616.94,326.34,616.33,325.81ZM859.27,220.56l1,.67c-.56,1.48-1,3-1.71,4.44-.17.37-.88.49-2.32,1.22C857.6,224.11,858.44,222.33,859.27,220.56ZM731.76,292.63c.3.34.61.68.91,1a25.07,25.07,0,0,1-2.86,2.51c-.37.24-1.2-.2-1.81-.33.28-.57.42-1.32.87-1.66A20.47,20.47,0,0,1,731.76,292.63Zm-118,12.85c-.25-1.83.88-3.43,2.1-3.11a2,2,0,0,1,1.16,1.42,2,2,0,0,1-1.79,2.48C614.78,306.34,614.2,305.71,613.8,305.48Zm194.25-169c-.18-1.63.68-2.67,2-2.42a2.08,2.08,0,0,1,1.38,1.25,2,2,0,0,1-2,2.23C808.8,137.4,808.37,136.74,808.05,136.46Zm-62.92,11.72a17,17,0,0,1,2.85-1.81c.26-.1,1.25.69,1.25,1.07a2,2,0,0,1-2.14,2C746.61,149.44,746.12,148.84,745.13,148.18ZM633.53,328.44l.21,1.18a19,19,0,0,1-2.27,1.2c-.82.31-2,.54-2.09-.63,0-.52,1-1.4,1.65-1.68A6.92,6.92,0,0,1,633.53,328.44Zm128.35-12.16c.63.47,1.21.68,1.27,1,.28,1.43-.78,2.09-1.86,2.49a2.77,2.77,0,0,1-1.84-.35,1.29,1.29,0,0,1-.07-1.2A28,28,0,0,1,761.88,316.28ZM812.38,290c1.24-2.6,2.34-3.95,5-4.7C816.49,287.8,815,288.75,812.38,290Zm-92.84,10.23c.18,1.75-.95,2.46-2.34,2.86a1.33,1.33,0,0,1-1.17-.43,1.31,1.31,0,0,1,.07-1.23C717,300.26,718,299.37,719.54,300.19Zm86.07-84.71c.78-.65,1.34-1.39,2-1.58.4-.11,1.3.58,1.52,1.1.42,1-.95,2.5-1.94,2.15C806.71,217,806.36,216.29,805.61,215.48ZM630.76,280.39a31.93,31.93,0,0,1,2.5-2.12c.16-.1,1,.32,1,.58.26,1.44-.74,2-1.91,2.24C632.06,281.16,631.64,280.78,630.76,280.39ZM692.24,302l2.34-1.94c.32.54.86,1.07.91,1.63.11,1.35-1,2.61-1.84,2.16C693.15,303.58,692.88,302.89,692.24,302ZM804.86,129.09c1-.76,1.51-1.44,1.91-1.38a6.67,6.67,0,0,1,2,1c-.41.42-.81,1.18-1.23,1.19A9,9,0,0,1,804.86,129.09Zm-88.79,26a8.61,8.61,0,0,1,.82.95,13.1,13.1,0,0,1-1.31,1.27c-.25-.28-.76-.73-.7-.82A10.27,10.27,0,0,1,716.07,155.08ZM817,184.7c.61.67,1.27,1.07,1.33,1.55a2.16,2.16,0,0,1-.65,1.67c-.61.55-1.69-.33-1.59-1.38A6.67,6.67,0,0,1,817,184.7Zm-89.12,95.16a6.09,6.09,0,0,1,1.79-.63c.19,0,.41.91.62,1.41a10.38,10.38,0,0,1-1.86.48C728.27,281.13,728.08,280.43,727.84,279.86Zm136.37-72.52a14.16,14.16,0,0,1,0-2.44c0-.16.63-.22,1-.26a.69.69,0,0,1,.24.51C865.21,205.68,864.89,206.17,864.21,207.34Zm-187.58-9.91.72.4c-.25.62-.47,1.26-.76,1.86-.08.16-.38.22-.57.32-.16-.31-.53-.71-.44-.92A10.49,10.49,0,0,1,676.63,197.43Zm119-67.21c.42-.45.78-1,1-1a6.64,6.64,0,0,1,1.53.86c-.27.3-.59.87-.82.84A7.26,7.26,0,0,1,795.63,130.22ZM619.52,332.66l1.69-.3c0,.35.17.82,0,1a1.25,1.25,0,0,1-1,.39C619.94,333.71,619.81,333.19,619.52,332.66Zm242.57-118c-.34-.53-.81-.95-.72-1.16a7.85,7.85,0,0,1,1-1.56c.27.42.82.9.75,1.26S862.51,214.12,862.09,214.64Zm-196.3,13.11,1-.69c.16.37.49.78.41,1.09s-.59.45-.92.67C666.12,228.46,666,228.11,665.79,227.75Zm86.71,52.62v-1.16a6.9,6.9,0,0,1,1,.28.78.78,0,0,1,0,.6A4.93,4.93,0,0,1,752.5,280.37Zm44.62-41.25.93-.85c.13.16.4.44.39.46-.29.3-.6.58-.92.86Zm50.38,5.29,1-.4c0,.19.15.52.08.56a5.58,5.58,0,0,1-1,.43C847.57,244.81,847.53,244.61,847.5,244.41Zm-13.29,5.13c.1.17.31.36.28.5s-.27.33-.42.49l-.44-.73Zm-136,62.92-1,.55c-.09-.19-.3-.45-.24-.56a6.41,6.41,0,0,1,.73-.92C697.87,311.84,698.05,312.15,698.23,312.46Zm-12.61,4.75a3.06,3.06,0,0,1,0-.56,4.58,4.58,0,0,1,1-.15,4.86,4.86,0,0,1,.09.57Zm19.28-9.53.46-.25-.27.71C705,308,705,307.83,704.9,307.68Zm71.53-47,.45-.38.33.81c-.19,0-.42.15-.56.07S776.5,260.9,776.43,260.72Zm-90.2-74-.49.1.2-.46Zm7.52-9.26.39.28-.45.23Zm102.47-2.29-.44-.3.5-.27Zm43-10.69-.15.57-.28-.43Z"/></svg>