<svg id="Calque_1" data-name="Calque 1" xmlns="http://www.w3.org/2000/svg" viewBox="0 0 1600 400"><defs><style>.cls-1{fill:#fff;}.cls-2{font-size:226.77px;fill:#001914;font-family:Magneto-Bold, Magneto;font-weight:700;}</style></defs><rect class="cls-1" x="-28.5" y="-49" width="1657" height="498"/><text class="cls-2" transform="translate(1180.9 261.26)">M</text><path d="M236,156.75h3.49V157a1.11,1.11,0,0,0-.32.56,5.93,5.93,0,0,0-.06,1v22.07h12.75v2.55H236Z"/><path d="M266,183.58a10.84,10.84,0,0,1-3.87-.66,8.26,8.26,0,0,1-3-1.92,8.55,8.55,0,0,1-1.93-3.15,13.87,13.87,0,0,1,0-8.64,9.41,9.41,0,0,1,1.91-3.19,8.13,8.13,0,0,1,2.85-2,9,9,0,0,1,3.47-.68,8.57,8.57,0,0,1,3.1.55,6.87,6.87,0,0,1,2.51,1.67,7.94,7.94,0,0,1,1.68,2.86,12.34,12.34,0,0,1,.62,4.11c0,.23,0,.46,0,.7s0,.47-.07.7H259.44a9.78,9.78,0,0,0,.64,3.21,6.3,6.3,0,0,0,1.45,2.23,5.72,5.72,0,0,0,2.06,1.28,7.31,7.31,0,0,0,2.49.42,7.81,7.81,0,0,0,1.91-.23,6.27,6.27,0,0,0,3.1-1.94l1.7,1.66a8.1,8.1,0,0,1-1.85,1.66,7.59,7.59,0,0,1-2.27,1A10.82,10.82,0,0,1,266,183.58Zm-6.42-12h10.67a7.66,7.66,0,0,0-.36-2.43,5.57,5.57,0,0,0-1-1.86,4.31,4.31,0,0,0-1.57-1.18,5.06,5.06,0,0,0-2.07-.4,5.41,5.41,0,0,0-1.93.34,4.75,4.75,0,0,0-1.68,1.07,6.67,6.67,0,0,0-1.3,1.84A8.82,8.82,0,0,0,259.57,171.59Z"/><path d="M278.66,163.81h14v2.5h-14Zm6.68,19.13a4.21,4.21,0,0,1-1.83-2,10.14,10.14,0,0,1-.83-3.39,40.75,40.75,0,0,1-.11-4.85l.51-13.89,3.19-.38.43,0,0,.29a4.76,4.76,0,0,0-.36.6,3.45,3.45,0,0,0-.24,1l-.38,4.82.13.76-.3,7a26.25,26.25,0,0,0,.17,5,4,4,0,0,0,1.07,2.43,3,3,0,0,0,2,.66,5.36,5.36,0,0,0,2.48-.56,17.82,17.82,0,0,0,2.28-1.4l.93,2.42a10.69,10.69,0,0,1-3,1.58,10.05,10.05,0,0,1-3.19.51A6.49,6.49,0,0,1,285.34,182.94Z"/><path d="M305.41,168.1,304,166.82a12.27,12.27,0,0,0,1.42-1.59,9.4,9.4,0,0,0,1-1.59,3.21,3.21,0,0,0,.36-1.28,1.22,1.22,0,0,0-.31-.83,5.9,5.9,0,0,0-.77-.7,4,4,0,0,1-.77-.77,1.58,1.58,0,0,1-.31-1,2.46,2.46,0,0,1,.7-1.79,2.4,2.4,0,0,1,1.8-.72,2.65,2.65,0,0,1,2,1,3.65,3.65,0,0,1,.9,2.56,6.46,6.46,0,0,1-.51,2.38,13.22,13.22,0,0,1-1.51,2.65A26.81,26.81,0,0,1,305.41,168.1Z"/><path d="M325.79,183.24a11.85,11.85,0,0,1-2.76-1,11.37,11.37,0,0,1-2.4-1.7l1.7-2.9.25-.38.26.17c.06.23.12.46.19.7a2.44,2.44,0,0,0,.57.87,7.32,7.32,0,0,0,2.15,1.47A7.81,7.81,0,0,0,329,181a8.18,8.18,0,0,0,2.66-.38,3.84,3.84,0,0,0,1.68-1.07,2.42,2.42,0,0,0,.59-1.62,2.34,2.34,0,0,0-.25-1.12,2.7,2.7,0,0,0-.83-.91,9.12,9.12,0,0,0-1.51-.85,20,20,0,0,0-2.3-.84,22.05,22.05,0,0,1-3.87-1.48,7.76,7.76,0,0,1-2.55-2,4,4,0,0,1-.89-2.56,4.14,4.14,0,0,1,.81-2.56,5.28,5.28,0,0,1,2.4-1.69,11,11,0,0,1,3.93-.61,14.33,14.33,0,0,1,2.47.19,9.52,9.52,0,0,1,2,.58,8,8,0,0,1,1.72.95,10.44,10.44,0,0,1,1.51,1.34l-1.74,2.13-.3.34-.21-.22a2.2,2.2,0,0,0-.19-.65,3,3,0,0,0-.62-.79,7.2,7.2,0,0,0-2.21-1.17,7.61,7.61,0,0,0-2.38-.4,6.78,6.78,0,0,0-2.93.58,1.92,1.92,0,0,0-1.24,1.81,2.11,2.11,0,0,0,.45,1.25,4.75,4.75,0,0,0,1.64,1.22,18.82,18.82,0,0,0,3.4,1.25,24,24,0,0,1,3.89,1.54,5.52,5.52,0,0,1,2.12,1.8,4.27,4.27,0,0,1,.66,2.4,5.52,5.52,0,0,1-.87,3,6,6,0,0,1-2.66,2.22,10.73,10.73,0,0,1-4.5.83A14.07,14.07,0,0,1,325.79,183.24Z"/><path d="M370.12,183.58a7,7,0,0,1-2.17-.34,5.65,5.65,0,0,1-1.85-1,6.06,6.06,0,0,1-1.42-1.75,9.14,9.14,0,0,1-.92-2.53,16.15,16.15,0,0,1-.31-3.34l0-10.77h3v10.76a12.31,12.31,0,0,0,.34,3.08,5.56,5.56,0,0,0,1,2,3.67,3.67,0,0,0,1.42,1.09,4.31,4.31,0,0,0,1.71.34,4.83,4.83,0,0,0,1.95-.4,5,5,0,0,0,1.68-1.2,5.61,5.61,0,0,0,1.17-2.07,9.55,9.55,0,0,0,.43-3V163.81h3v16.41c0,.51,0,1,.07,1.51a5.34,5.34,0,0,0,.36,1.51h-2.94a4.87,4.87,0,0,1-.29-1.05,7,7,0,0,1-.11-1c0-.35,0-.69,0-1a6.94,6.94,0,0,1-6,3.45Z"/><path d="M389.57,183.24a11.85,11.85,0,0,1-2.76-1,11.37,11.37,0,0,1-2.4-1.7l1.7-2.9.25-.38.26.17c.06.23.12.46.19.7a2.44,2.44,0,0,0,.57.87,7.32,7.32,0,0,0,2.15,1.47,7.81,7.81,0,0,0,3.21.58,8.18,8.18,0,0,0,2.66-.38,3.84,3.84,0,0,0,1.68-1.07,2.42,2.42,0,0,0,.59-1.62,2.34,2.34,0,0,0-.25-1.12,2.7,2.7,0,0,0-.83-.91,9.12,9.12,0,0,0-1.51-.85,20,20,0,0,0-2.3-.84,21.63,21.63,0,0,1-3.86-1.48,7.7,7.7,0,0,1-2.56-2,4,4,0,0,1-.89-2.56,4.14,4.14,0,0,1,.81-2.56,5.28,5.28,0,0,1,2.4-1.69,11,11,0,0,1,3.93-.61,14.33,14.33,0,0,1,2.47.19,9.52,9.52,0,0,1,2,.58,8,8,0,0,1,1.72.95,10.44,10.44,0,0,1,1.51,1.34l-1.74,2.13-.3.34-.21-.22a2.2,2.2,0,0,0-.19-.65,3,3,0,0,0-.62-.79,7.2,7.2,0,0,0-2.21-1.17,7.61,7.61,0,0,0-2.38-.4,6.78,6.78,0,0,0-2.93.58,1.92,1.92,0,0,0-1.24,1.81,2.11,2.11,0,0,0,.45,1.25,4.75,4.75,0,0,0,1.64,1.22,18.82,18.82,0,0,0,3.4,1.25,24,24,0,0,1,3.89,1.54,5.52,5.52,0,0,1,2.12,1.8,4.27,4.27,0,0,1,.66,2.4,5.52,5.52,0,0,1-.87,3,6,6,0,0,1-2.66,2.22,10.73,10.73,0,0,1-4.5.83A14.07,14.07,0,0,1,389.57,183.24Z"/><path d="M414.81,183.58a10.84,10.84,0,0,1-3.87-.66,8.26,8.26,0,0,1-3-1.92,8.55,8.55,0,0,1-1.93-3.15,13.87,13.87,0,0,1,0-8.64,9.26,9.26,0,0,1,1.91-3.19,8.13,8.13,0,0,1,2.85-2,9,9,0,0,1,3.47-.68,8.57,8.57,0,0,1,3.1.55,6.87,6.87,0,0,1,2.51,1.67,7.94,7.94,0,0,1,1.68,2.86,12.34,12.34,0,0,1,.62,4.11c0,.23,0,.46,0,.7s0,.47-.06.7H408.26a9.78,9.78,0,0,0,.64,3.21,6.42,6.42,0,0,0,1.44,2.23,5.85,5.85,0,0,0,2.07,1.28,7.3,7.3,0,0,0,2.48.42,7.83,7.83,0,0,0,1.92-.23,6.27,6.27,0,0,0,3.1-1.94l1.7,1.66a8.1,8.1,0,0,1-1.85,1.66,7.59,7.59,0,0,1-2.27,1A10.82,10.82,0,0,1,414.81,183.58Zm-6.42-12h10.67a7.66,7.66,0,0,0-.36-2.43,5.57,5.57,0,0,0-1-1.86,4.31,4.31,0,0,0-1.57-1.18,5.06,5.06,0,0,0-2.07-.4,5.41,5.41,0,0,0-1.93.34,4.75,4.75,0,0,0-1.68,1.07,6.67,6.67,0,0,0-1.3,1.84A8.82,8.82,0,0,0,408.39,171.59Z"/><path d="M456.39,183.58a8.45,8.45,0,0,1-4.65-1.3,8.8,8.8,0,0,1-3.17-3.57,12.47,12.47,0,0,1,0-10.46,8.8,8.8,0,0,1,3.17-3.57,9,9,0,0,1,9.31,0,8.88,8.88,0,0,1,3.17,3.57,12.47,12.47,0,0,1,0,10.46,8.88,8.88,0,0,1-3.17,3.57A8.48,8.48,0,0,1,456.39,183.58Zm0-2.55a4.76,4.76,0,0,0,3-1,6.7,6.7,0,0,0,2-2.68,10.7,10.7,0,0,0,0-7.82,6.5,6.5,0,0,0-2-2.66,5.06,5.06,0,0,0-5.93,0,6.29,6.29,0,0,0-2,2.66,10.57,10.57,0,0,0,0,7.82,6.48,6.48,0,0,0,2,2.68A4.78,4.78,0,0,0,456.39,181Z"/><path d="M476.42,183.58a7,7,0,0,1-2.17-.34,5.65,5.65,0,0,1-1.85-1,6.06,6.06,0,0,1-1.42-1.75,9.14,9.14,0,0,1-.92-2.53,16.15,16.15,0,0,1-.31-3.34l0-10.77h3v10.76a12.31,12.31,0,0,0,.34,3.08,5.56,5.56,0,0,0,1,2,3.67,3.67,0,0,0,1.42,1.09,4.31,4.31,0,0,0,1.71.34,4.83,4.83,0,0,0,1.95-.4,5,5,0,0,0,1.68-1.2,5.61,5.61,0,0,0,1.17-2.07,9.55,9.55,0,0,0,.43-3V163.81h3v16.41c0,.51,0,1,.07,1.51a5.34,5.34,0,0,0,.36,1.51h-2.94a4.87,4.87,0,0,1-.29-1.05,7,7,0,0,1-.11-1c0-.35,0-.69,0-1a6.94,6.94,0,0,1-6,3.45Z"/><path d="M493.34,163.81h3.19l-.13,5.69-.38-.64a6.74,6.74,0,0,1,.9-2.33,6.53,6.53,0,0,1,3.48-2.79,6.87,6.87,0,0,1,2.21-.36,7.46,7.46,0,0,1,2.83.53,6.85,6.85,0,0,1,2.32,1.6l-1.36,2.38-.17.38-.3-.17a2.39,2.39,0,0,0-.26-.64,2.66,2.66,0,0,0-.72-.72,4.37,4.37,0,0,0-1.25-.57,5.22,5.22,0,0,0-1.3-.15,6,6,0,0,0-2.13.4,5.52,5.52,0,0,0-1.93,1.25,6,6,0,0,0-1.38,2.15,8.66,8.66,0,0,0-.51,3.13v10.29h-3.11Z"/><path d="M532.42,183.24V163.81h2.8v1.95a6,6,0,0,1,1.09-1.25,4.65,4.65,0,0,1,1.36-.83,4,4,0,0,1,1.51-.3,3.47,3.47,0,0,1,3.44,2.85,4.9,4.9,0,0,1,1-1.49,4.72,4.72,0,0,1,1.53-1,4.66,4.66,0,0,1,1.8-.36,3.64,3.64,0,0,1,1.7.38,3.33,3.33,0,0,1,1.19,1,4.23,4.23,0,0,1,.68,1.57,7,7,0,0,1,.17,2v14.9h-2.8V169.49a9.9,9.9,0,0,0-.24-2.58,1.57,1.57,0,0,0-.66-1,1.84,1.84,0,0,0-.93-.24,2.06,2.06,0,0,0-1.51.75,6.14,6.14,0,0,0-1.59,4.05v12.81h-2.85V169.75a7.63,7.63,0,0,0-.45-3.23,1.76,1.76,0,0,0-1.68-.8,1.72,1.72,0,0,0-1,.32,3.63,3.63,0,0,0-.91.89,4.58,4.58,0,0,0-.68,1.42,6.72,6.72,0,0,0-.26,2v12.94Z"/><path d="M562.69,183.58a8.43,8.43,0,0,1-4.65-1.3,8.8,8.8,0,0,1-3.17-3.57,12.47,12.47,0,0,1,0-10.46,8.8,8.8,0,0,1,3.17-3.57,9,9,0,0,1,9.31,0,9,9,0,0,1,3.17,3.57,12.57,12.57,0,0,1,0,10.46,9,9,0,0,1-3.17,3.57A8.48,8.48,0,0,1,562.69,183.58Zm0-2.55a4.76,4.76,0,0,0,3-1,6.7,6.7,0,0,0,2-2.68,10.7,10.7,0,0,0,0-7.82,6.5,6.5,0,0,0-2-2.66,5.06,5.06,0,0,0-5.93,0,6.29,6.29,0,0,0-2,2.66,10.57,10.57,0,0,0,0,7.82,6.48,6.48,0,0,0,2,2.68A4.78,4.78,0,0,0,562.69,181Z"/><path d="M576.38,183.24V163.81h3v3.48a9.38,9.38,0,0,1,1.79-2.06,8.1,8.1,0,0,1,2.25-1.36,6.76,6.76,0,0,1,2.55-.49,5.27,5.27,0,0,1,2.89.81,5.48,5.48,0,0,1,2,2.58,12.12,12.12,0,0,1,.77,4.71v11.76h-3V171.57a9,9,0,0,0-.47-3.24,3.45,3.45,0,0,0-1.27-1.74,3.3,3.3,0,0,0-1.83-.53,5.11,5.11,0,0,0-2,.42,6.78,6.78,0,0,0-1.85,1.21,6.45,6.45,0,0,0-1.38,1.89,5.74,5.74,0,0,0-.53,2.5v11.16Z"/><path d="M606.15,183.58a10.84,10.84,0,0,1-3.87-.66,8.26,8.26,0,0,1-3-1.92,8.42,8.42,0,0,1-1.93-3.15,13.87,13.87,0,0,1,0-8.64,9.1,9.1,0,0,1,1.91-3.19,8.13,8.13,0,0,1,2.85-2,9,9,0,0,1,3.46-.68,8.62,8.62,0,0,1,3.11.55,6.87,6.87,0,0,1,2.51,1.67,7.94,7.94,0,0,1,1.68,2.86,12.35,12.35,0,0,1,.61,4.11c0,.23,0,.46,0,.7s0,.47-.06.7H599.6a9.78,9.78,0,0,0,.64,3.21,6.42,6.42,0,0,0,1.44,2.23,5.76,5.76,0,0,0,2.07,1.28,7.22,7.22,0,0,0,2.48.42,7.89,7.89,0,0,0,1.92-.23,6.25,6.25,0,0,0,1.68-.73,6.47,6.47,0,0,0,1.42-1.21l1.7,1.66a8.32,8.32,0,0,1-1.85,1.66,7.59,7.59,0,0,1-2.27,1A10.88,10.88,0,0,1,606.15,183.58Zm-6.42-12H610.4a7.66,7.66,0,0,0-.36-2.43,5.57,5.57,0,0,0-1-1.86,4.35,4.35,0,0,0-1.58-1.18,5,5,0,0,0-2.06-.4,5.41,5.41,0,0,0-1.93.34,4.75,4.75,0,0,0-1.68,1.07,6.67,6.67,0,0,0-1.3,1.84A8.82,8.82,0,0,0,599.73,171.59Z"/><path d="M618.75,190.12a5.66,5.66,0,0,1-2-1.23l1.32-2.08.25-.38.26.17a1.29,1.29,0,0,0,.29.57,4.26,4.26,0,0,0,.81.62,5.31,5.31,0,0,0,.81.19,6.33,6.33,0,0,0,.89.06,3.29,3.29,0,0,0,1.94-.55,4.71,4.71,0,0,0,1.38-1.69,19.09,19.09,0,0,0,1.15-2.88l3.7-11.4c.42-1.3.83-2.59,1.23-3.86a20.62,20.62,0,0,0,.81-3.85h3.06a25.27,25.27,0,0,1-.94,3.94c-.42,1.33-.88,2.65-1.36,4l-4.84,13.65a8.32,8.32,0,0,1-2.62,4,6.05,6.05,0,0,1-3.68,1.17A6.85,6.85,0,0,1,618.75,190.12Zm-1-26.31H621L627.28,180l-1.36,3.78Z"/><path d="M236.14,214.83h14v2.51h-14ZM242.82,234a4.12,4.12,0,0,1-1.83-2,10,10,0,0,1-.83-3.38,41,41,0,0,1-.11-4.86l.51-13.89,3.19-.38.43,0,0,.3a4.67,4.67,0,0,0-.36.59,3.45,3.45,0,0,0-.24,1l-.38,4.81.13.77-.3,7a26.18,26.18,0,0,0,.17,5,4,4,0,0,0,1.07,2.43,3,3,0,0,0,2,.66,5.36,5.36,0,0,0,2.48-.55,18,18,0,0,0,2.28-1.41l.93,2.43a10.65,10.65,0,0,1-3,1.57,10.05,10.05,0,0,1-3.19.51A6.38,6.38,0,0,1,242.82,234Z"/><path d="M257.53,206h3.36v.3a1.11,1.11,0,0,0-.32.56,5.67,5.67,0,0,0-.07,1v10.46a9.29,9.29,0,0,1,1.81-2.07,8.85,8.85,0,0,1,2.21-1.36,6.2,6.2,0,0,1,2.36-.49,5.89,5.89,0,0,1,3.09.81,5.29,5.29,0,0,1,2.08,2.59,12.56,12.56,0,0,1,.74,4.71v11.75h-3V222.6a9.28,9.28,0,0,0-.47-3.25,3.55,3.55,0,0,0-1.28-1.74,3.24,3.24,0,0,0-1.82-.53,5.27,5.27,0,0,0-1.58.26,5.87,5.87,0,0,0-1.55.76,6.32,6.32,0,0,0-1.34,1.25,5.74,5.74,0,0,0-.93,1.68,5.93,5.93,0,0,0-.35,2.08v11.15h-3Z"/><path d="M287.25,234.6a11.06,11.06,0,0,1-3.87-.65,8.29,8.29,0,0,1-3-1.93,8.5,8.5,0,0,1-1.93-3.14,13.9,13.9,0,0,1,0-8.65,9.51,9.51,0,0,1,1.91-3.19,8.26,8.26,0,0,1,2.85-2,9,9,0,0,1,3.47-.68,8.79,8.79,0,0,1,3.1.55,6.77,6.77,0,0,1,2.51,1.68,7.94,7.94,0,0,1,1.68,2.86,12.24,12.24,0,0,1,.62,4.1c0,.23,0,.46,0,.7s0,.48-.06.7H280.7a9.84,9.84,0,0,0,.64,3.22,6.25,6.25,0,0,0,1.45,2.22,5.59,5.59,0,0,0,2.06,1.28,7.3,7.3,0,0,0,2.48.42,7.38,7.38,0,0,0,1.92-.23,6.16,6.16,0,0,0,3.1-1.93l1.7,1.65a7.87,7.87,0,0,1-1.85,1.66,7.35,7.35,0,0,1-2.27,1A10.82,10.82,0,0,1,287.25,234.6Zm-6.42-12H291.5a7.66,7.66,0,0,0-.36-2.43,5.62,5.62,0,0,0-1-1.85,4.23,4.23,0,0,0-1.57-1.19,5.23,5.23,0,0,0-2.07-.4,5.41,5.41,0,0,0-1.93.34,4.78,4.78,0,0,0-1.68,1.08,6.47,6.47,0,0,0-1.3,1.83A9,9,0,0,0,280.83,222.61Z"/><path d="M323.26,214.83h3.19l-.12,5.7-.39-.64a6.72,6.72,0,0,1,.9-2.34,6.5,6.5,0,0,1,1.53-1.72,6.63,6.63,0,0,1,1.95-1.07,6.87,6.87,0,0,1,2.21-.36,7.28,7.28,0,0,1,2.83.54,6.6,6.6,0,0,1,2.32,1.59l-1.36,2.38-.17.38-.3-.17a2.33,2.33,0,0,0-.26-.63,2.81,2.81,0,0,0-.72-.73,4.67,4.67,0,0,0-1.25-.57,5.22,5.22,0,0,0-1.3-.15,6,6,0,0,0-2.13.4,5.77,5.77,0,0,0-1.93,1.25,5.91,5.91,0,0,0-1.38,2.16,8.63,8.63,0,0,0-.51,3.13v10.28h-3.11Z"/><path d="M343.72,234.26v-2.47h5v-14.5H344v-2.46h7.78v17h4.55v2.47Zm6.33-23.51a2.19,2.19,0,0,1-2.17-2.17,2.17,2.17,0,0,1,.62-1.57,2.05,2.05,0,0,1,1.55-.64,2.25,2.25,0,0,1,2.21,2.21,2.07,2.07,0,0,1-.66,1.53A2.17,2.17,0,0,1,350.05,210.75Z"/><path d="M371.23,241.57a19.59,19.59,0,0,1-3.68-.31,10.52,10.52,0,0,1-2.81-.94,4.67,4.67,0,0,1-1.78-1.54,3.87,3.87,0,0,1-.62-2.21,4.35,4.35,0,0,1,.51-2.12,4.64,4.64,0,0,1,1.34-1.54A5.84,5.84,0,0,1,366,232l1.27.77a6.55,6.55,0,0,0-1.23.93,2.79,2.79,0,0,0-.68,1.08,4.5,4.5,0,0,0-.21,1.46,2.12,2.12,0,0,0,.42,1.29,3.19,3.19,0,0,0,1.21.95,7.76,7.76,0,0,0,1.92.6,14.05,14.05,0,0,0,2.57.21,10.6,10.6,0,0,0,3.17-.4,4,4,0,0,0,1.8-1.1,2.39,2.39,0,0,0,.6-1.59,3.15,3.15,0,0,0-.34-1.53,2.26,2.26,0,0,0-1.4-.89,13.49,13.49,0,0,0-3.24-.29,25.18,25.18,0,0,1-2.72-.13,12.06,12.06,0,0,1-2.21-.42,6.09,6.09,0,0,1-1.64-.75,2.94,2.94,0,0,1-1-1.08,3.14,3.14,0,0,1-.33-1.48,4,4,0,0,1,.61-2.12,8.56,8.56,0,0,1,1.68-2l1.45,1.15a7.86,7.86,0,0,0-.68.83,2.65,2.65,0,0,0-.36.68,2,2,0,0,0-.11.7,1.35,1.35,0,0,0,.53,1.1,4,4,0,0,0,1.85.62,27.45,27.45,0,0,0,3.57.19,15.23,15.23,0,0,1,3.66.36,5,5,0,0,1,2.15,1,3.73,3.73,0,0,1,1,1.56,6.43,6.43,0,0,1,.29,1.95,5.46,5.46,0,0,1-.44,2.19,5,5,0,0,1-1.43,1.86,7.23,7.23,0,0,1-2.59,1.32A14.08,14.08,0,0,1,371.23,241.57Zm-.9-13.86a7.08,7.08,0,0,1-3.61-.89,6.23,6.23,0,0,1-2.36-2.42,7,7,0,0,1-.83-3.36,6.81,6.81,0,0,1,.83-3.34,6.25,6.25,0,0,1,2.36-2.4,7.75,7.75,0,0,1,7.25,0,6.41,6.41,0,0,1,2.34,2.4,6.81,6.81,0,0,1,.83,3.34,7,7,0,0,1-.83,3.36,6.39,6.39,0,0,1-2.34,2.42A7.09,7.09,0,0,1,370.33,227.71Zm0-2.55a4.18,4.18,0,0,0,2.19-.56,4.1,4.1,0,0,0,1.51-1.5,4.19,4.19,0,0,0,0-4.15,4.2,4.2,0,0,0-1.51-1.48,4.34,4.34,0,0,0-5.89,1.48,4.19,4.19,0,0,0,0,4.15,4.18,4.18,0,0,0,3.7,2.06Zm5.66-7.1-1.19-1.4a8.29,8.29,0,0,1,2.57-1.81,6.88,6.88,0,0,1,3.17-.45l.38,2.51a10.45,10.45,0,0,0-2.64.09A4.94,4.94,0,0,0,376,218.06Z"/><path d="M385.09,206h3.36v.3a1.11,1.11,0,0,0-.32.56,5.67,5.67,0,0,0-.07,1v10.46a9.29,9.29,0,0,1,1.81-2.07,8.85,8.85,0,0,1,2.21-1.36,6.2,6.2,0,0,1,2.36-.49,5.89,5.89,0,0,1,3.09.81,5.29,5.29,0,0,1,2.08,2.59,12.56,12.56,0,0,1,.74,4.71v11.75h-3V222.6a9.28,9.28,0,0,0-.47-3.25,3.55,3.55,0,0,0-1.28-1.74,3.27,3.27,0,0,0-1.83-.53,5.21,5.21,0,0,0-1.57.26,5.72,5.72,0,0,0-1.55.76,6.32,6.32,0,0,0-1.34,1.25,5.74,5.74,0,0,0-.93,1.68,5.93,5.93,0,0,0-.35,2.08v11.15h-3Z"/><path d="M406.22,214.83h14v2.51h-14ZM412.9,234a4.12,4.12,0,0,1-1.83-2,10,10,0,0,1-.83-3.38,41,41,0,0,1-.11-4.86l.51-13.89,3.19-.38.43,0,0,.3a4.67,4.67,0,0,0-.36.59,3.45,3.45,0,0,0-.24,1l-.38,4.81.13.77-.3,7a26.18,26.18,0,0,0,.17,5,4.05,4.05,0,0,0,1.06,2.43,3,3,0,0,0,2,.66,5.37,5.37,0,0,0,2.49-.55,18,18,0,0,0,2.28-1.41l.93,2.43a10.65,10.65,0,0,1-3,1.57,10.05,10.05,0,0,1-3.19.51A6.38,6.38,0,0,1,412.9,234Z"/><path d="M450.36,234.26l-3.92-19.43h2.68l3.15,15.57,3.32-13.74h1.87l4.12,13.7c.37-2.52.67-4.59.92-6.2s.42-2.93.55-4,.21-1.91.25-2.61.07-1.42.07-2.12v-.64h2.85c-.29,2.18-.59,4.35-.92,6.51s-.68,4.32-1.06,6.47-.8,4.3-1.26,6.45h-2.89l-3.57-12.56-3.4,12.56Z"/><path d="M476,234.6a7.73,7.73,0,0,1-5.11-1.5,4.8,4.8,0,0,1-1.78-3.84,5.32,5.32,0,0,1,.76-2.82,6.64,6.64,0,0,1,2.11-2.11A10.54,10.54,0,0,1,475.1,223a15,15,0,0,1,3.79-.47l1.46,0c.5,0,1,0,1.58.08s1.12.11,1.72.19l.08,2.34c-.51-.08-1-.15-1.55-.19l-1.55-.11c-.51,0-1,0-1.49,0a15.3,15.3,0,0,0-2.81.25,7.86,7.86,0,0,0-2.21.77,3.74,3.74,0,0,0-1.44,1.31,3.53,3.53,0,0,0-.51,1.94,3.14,3.14,0,0,0,.32,1.5,2.48,2.48,0,0,0,.87,1,3.9,3.9,0,0,0,1.3.53,6.91,6.91,0,0,0,1.63.17,7.66,7.66,0,0,0,3-.53,6,6,0,0,0,2.21-1.53,6.69,6.69,0,0,0,1.38-2.49,11.27,11.27,0,0,0,.47-3.38,11.85,11.85,0,0,0-.68-4.47,4.36,4.36,0,0,0-2-2.27,8.24,8.24,0,0,0-6.19-.15,7.08,7.08,0,0,0-2.46,1.64l-1.49-2a9,9,0,0,1,3.14-2,10.65,10.65,0,0,1,3.79-.68,12.21,12.21,0,0,1,3.48.47,6.49,6.49,0,0,1,2.7,1.55,7.08,7.08,0,0,1,1.75,2.92,14.57,14.57,0,0,1,.61,4.59v10.33h-3.31v-3.1a5.84,5.84,0,0,1-1.34,1.74,6.23,6.23,0,0,1-1.68,1,8.6,8.6,0,0,1-1.83.51A11.25,11.25,0,0,1,476,234.6Z"/><path d="M491.2,241.15a6,6,0,0,1-2-1.23l1.32-2.09.25-.38.26.17a1.19,1.19,0,0,0,.29.57,4.62,4.62,0,0,0,.81.62,4.34,4.34,0,0,0,.81.19,6.33,6.33,0,0,0,.89.06,3.29,3.29,0,0,0,1.94-.55,4.62,4.62,0,0,0,1.38-1.69,18.09,18.09,0,0,0,1.15-2.88l3.7-11.4c.42-1.3.83-2.58,1.23-3.85a20.1,20.1,0,0,0,.81-3.86h3.06a25.27,25.27,0,0,1-.94,3.94c-.42,1.33-.88,2.66-1.36,4L500,236.4a8.29,8.29,0,0,1-2.62,4,6,6,0,0,1-3.68,1.16A7.05,7.05,0,0,1,491.2,241.15Zm-1-26.32h3.19L499.72,231l-1.36,3.77Z"/><path d="M541,234.6a2.45,2.45,0,0,1-1.76-.72,2.34,2.34,0,0,1-.74-1.75,2.45,2.45,0,0,1,.74-1.78,2.38,2.38,0,0,1,1.76-.77,2.63,2.63,0,0,1,2.56,2.55,2.35,2.35,0,0,1-.77,1.73A2.5,2.5,0,0,1,541,234.6Zm-1-8.72-1.06-17a5.12,5.12,0,0,1,.26-1.73,2.21,2.21,0,0,1,.74-1.06,1.94,1.94,0,0,1,1.17-.36,1.84,1.84,0,0,1,1.15.36,2.37,2.37,0,0,1,.74,1.15,6.16,6.16,0,0,1,.28,2.06l-1.15,16.58Z"/></svg>