<svg xmlns="http://www.w3.org/2000/svg" viewBox="0 0 258 157.46"><defs><style>.cls-1{fill:#001914;}</style></defs><g id="Calque_2" data-name="Calque 2"><g id="Calque_1-2" data-name="Calque 1"><path class="cls-1" d="M258,138.08q-4.65,17.71-30.79,17.71H187.46q-18.6,0-18.6-10.74a29.37,29.37,0,0,1,2.33-9.85l18.38-47.84L134.65,147.6q-8.86,9.85-19.38,9.86a27.4,27.4,0,0,1-4.21-.34q-12.61-1.44-12.62-12.62a25.1,25.1,0,0,1,2-9.3l27.24-70.31L59.35,147.38q-6.87,8.42-20.15,8.41H16.72L61.45,27.9H0L16.72,0h74Q106,0,106,11.18a32.93,32.93,0,0,1-2.11,10.41L80.06,90.24l47.61-53.92q9.08-10.41,14-13.51,8.08-5.08,20.93-5.09a14.31,14.31,0,0,1,7.64,2.54q6.09,4,6.09,11.85a29.79,29.79,0,0,1-2.44,11L152.36,98.88,195,56q9.07-9.08,12.07-11,5.2-3,14.95-2.88a14.88,14.88,0,0,1,8.19,2.88q6.65,4.32,6.65,12.62a29.54,29.54,0,0,1-2.22,10.52l-26.46,69.87Z"/></g></g></svg>